<?xml version="1.0" standalone="no"?>
<!DOCTYPE svg PUBLIC "-//W3C//DTD SVG 1.1//EN" "http://www.w3.org/Graphics/SVG/1.1/DTD/svg11.dtd" >
<svg xmlns="http://www.w3.org/2000/svg">
<metadata>Generated by IcoMoon</metadata>
<defs>
<font id="vote-icon" horiz-adv-x="1024">
<font-face units-per-em="1024" ascent="960" descent="-64" />
<missing-glyph horiz-adv-x="1024" />
<glyph unicode="&#x20;" horiz-adv-x="512" d="" />
<glyph unicode="&#xe900;" glyph-name="common-shop" d="M713.528 662.913c-0.404 1.39-0.609 2.83-0.609 4.277 0 2.177-5.637 4.707-12.904 4.707h-339.254c-7.27 0-12.905-2.531-12.905-4.707 0-1.459-0.208-2.91-0.618-4.311l-49.488-169.123c-0.251-0.858-0.584-1.667-0.964-2.444 0.462-1.462 0.714-3.016 0.714-4.63 0-29.216 19.938-52.986 44.446-52.986s44.447 23.77 44.447 52.986c0 8.477 6.873 15.35 15.35 15.35s15.35-6.873 15.35-15.35c0-29.689 20.526-53.843 45.757-53.843 25.22 0 45.738 24.154 45.738 53.843 0 8.477 6.873 15.35 15.35 15.35s15.35-6.873 15.35-15.35c0-28.739 20.517-52.119 45.735-52.119 25.231 0 45.758 23.38 45.758 52.119 0 8.477 6.874 15.35 15.35 15.35 6.031 0 11.235-3.485 13.745-8.545 5.611-2.283 9.572-7.783 9.572-14.217 0-26.359 20.843-47.804 46.461-47.804 25.643 0 46.504 21.444 46.504 47.804 0 3.223 0.998 6.21 2.695 8.681-0.903 1.315-1.618 2.791-2.087 4.405l-49.493 170.556zM648.661 440.845c-13.717-22.273-37.119-36.98-63.638-36.98-24.731 0-46.747 12.804-60.726 32.602-13.936-20.809-36.288-34.327-61.446-34.327-24.979 0-47.197 13.318-61.157 33.865-11.389-16.61-28.222-28.346-47.51-31.879 3.131-2.81 5.11-6.876 5.11-11.412v-158.837c0-1.198 0.209-2.34 0.579-3.389l47.336 61.374h242.511l51.727-61.011c0.294 0.949 0.463 1.965 0.463 3.027v158.836c0 3.316 1.062 6.377 2.848 8.888-24.087 3.561-44.592 18.486-56.097 39.243zM504.252 384.369l-1.963 1.611 3.206 0.032-1.243-1.642zM526.887 912.912c-247.051 0-447.322-200.27-447.322-447.322 0-247.044 200.271-447.321 447.322-447.321 247.041 0 447.321 200.278 447.321 447.321 0 247.051-200.279 447.322-447.321 447.322zM729.457 402.005c1.969-2.58 3.152-5.794 3.152-9.292v-158.837c0-21.942-17.344-39.793-38.663-39.793h-326.691c-21.319 0-38.663 17.85-38.663 39.793v158.837c0 4.253 1.731 8.102 4.526 10.882-37.287 4.883-66.319 40.271-66.319 83.088 0 2.427 0.578 4.714 1.582 6.755-0.891 2.808-0.986 5.902-0.097 8.941l48.965 167.331c1.439 19.203 19.293 32.887 43.512 32.887h339.253c24.228 0 42.086-13.692 43.512-32.907l48.973-168.776c1.334-4.593 0.422-9.303-2.085-12.962 1.697-2.469 2.695-5.456 2.695-8.679 0.001-38.586-27.526-70.734-63.653-77.268z" />
<glyph unicode="&#xe901;" glyph-name="common-add-item" d="M512 954.88c-279.962 0-506.88-226.918-506.88-506.88s226.918-506.88 506.88-506.88 506.88 226.918 506.88 506.88-226.918 506.88-506.88 506.88zM599.45 712.704h111.104c24.781 0 38.502-12.698 38.502-35.635v-264.192c0-8.704-7.066-15.77-15.77-15.77s-15.77 7.066-15.77 15.77v265.216c0 1.126 0 3.072-4.403 3.072h-113.664c-8.602 0-15.77 7.27-15.77 15.77 0 8.602 7.27 15.77 15.77 15.77zM487.322 191.181h-188.621c-18.842 0-34.714 15.872-34.714 34.714l0.205 458.752c0 11.776 10.24 28.058 29.389 28.058h127.59c8.704 0 15.77-7.066 15.77-15.77s-7.066-15.77-15.77-15.77h-122.266c-2.15 0-3.277-0.819-3.277-2.253v-453.018s0.307-3.072 3.174-3.072h188.518c8.704 0 15.77-7.066 15.77-15.77 0-8.806-7.066-15.872-15.77-15.872zM511.693 448.922c-76.288 0-144.896 45.568-175.309 116.122-12.186 3.789-20.48 15.155-20.48 28.058 0 16.179 13.21 29.389 29.389 29.389s29.389-13.21 29.389-29.389c0-7.885-3.174-15.36-8.704-20.89 26.829-55.808 83.763-91.75 145.818-91.75 61.030 0 117.555 35.123 144.794 89.702-6.963 5.53-11.059 13.926-11.059 22.938 0 16.179 13.21 29.389 29.389 29.389s29.389-13.21 29.389-29.389c0-11.264-6.451-21.402-16.486-26.419-30.208-71.578-99.123-117.76-176.128-117.76zM756.326 298.086l-42.598-41.574 9.933-57.754c1.024-5.837-1.229-11.059-5.939-13.824-1.946-1.126-3.994-1.741-6.246-1.741-2.15 0-4.301 0.512-6.246 1.638l-52.326 27.443-52.326-27.443c-1.946-1.024-4.096-1.536-6.246-1.536-3.379 0-6.451 1.331-8.806 3.686-2.97 2.97-4.198 7.066-3.379 11.776l9.933 57.754-42.701 41.574c-3.277 3.277-4.506 8.602-2.97 13.312 1.434 4.301 4.813 7.27 9.114 7.885l59.699 8.704 26.522 53.862c1.741 3.482 5.222 5.837 9.318 6.451h0.307c0.205 0 0.512 0 0.819 0.102h1.126c0.307 0 0.512 0 0.819-0.102h0.205c4.198-0.512 7.68-2.97 9.421-6.451l26.522-53.862 59.699-8.704c4.301-0.614 7.68-3.584 9.114-7.885 1.741-4.71 0.614-10.035-2.765-13.312zM685.056 302.285c-3.789 0.512-9.523 1.229-12.595 7.27l-18.125 36.762-15.974-32.256c-0.205-0.41-0.307-0.717-0.512-1.126-1.638-3.584-4.301-9.216-10.752-10.138l-41.062-5.939 28.979-28.262c3.379-3.277 4.608-7.578 3.686-12.8l-6.758-39.117 32.563 17.101c2.765 1.536 5.939 3.277 9.83 3.277 2.15 0 4.301-0.512 6.451-1.638l35.533-18.637-5.939 34.406-0.307 1.434c-0.819 4.403-2.048 10.957 3.072 15.974l29.082 28.365-36.045 5.222c-0.102-0.102-1.126 0.102-1.126 0.102z" />
<glyph unicode="&#xe902;" glyph-name="common-order-list" d="M298.637 304.275c0-0.31-0.147-0.57-0.179-0.88h0.179c0.705-26.459 22.322-47.64 48.886-47.64s48.181 21.181 48.885 47.575l0.001 0.065h0.081c0.205 3.666 2.845 6.661 6.319 7.405l0.053 0.009h-107.761c2.119-1.436 3.502-3.82 3.536-6.529v-0.005zM541.421 653.028h-262.339c-17.555-0.009-31.783-14.238-31.792-31.791v-262.324c0-17.566 14.258-31.792 31.792-31.792h262.339c0.005 0 0.011 0 0.016 0 17.549 0 31.776 14.227 31.776 31.776 0 0.006 0 0.011 0 0.017v-0.001 262.323c0 0.005 0 0.011 0 0.016 0 17.549-14.227 31.776-31.776 31.776-0.006 0-0.011 0-0.017 0h0.001zM525.077 414.595h-224.061c-5.622 0-10.185 3.634-10.185 8.115 0 4.514 4.563 8.18 10.185 8.18h224.061c5.606 0 10.185-3.666 10.185-8.18 0-4.498-4.595-8.115-10.185-8.115zM511.992 960c-282.741 0-511.984-229.227-511.984-512 0-282.79 229.243-512 511.984-512 282.79 0 511.984 229.21 511.984 512 0 282.773-229.21 512-511.984 512zM589.509 359.712c0-27.018-21.868-48.886-48.886-48.886h-134.371c3.524-0.759 6.161-3.75 6.37-7.393l0.001-0.021h0.081l-0.033-0.277 0.033-0.13c0-0.147-0.081-0.261-0.081-0.391-0.226-35.805-29.304-64.743-65.141-64.743-35.977 0-65.142 29.165-65.142 65.142 0 0.14 0 0.281 0.001 0.421v-0.022h0.179c-0.033 0.31-0.179 0.57-0.179 0.88 0.034 2.714 1.417 5.098 3.508 6.517l0.028 0.018h-6.013c-26.999 0-48.886 21.887-48.886 48.886v0 260.726c0 26.999 21.887 48.886 48.886 48.886v0h260.742c26.999 0 48.886-21.887 48.886-48.886v0-260.726zM765.548 302.613c0-0.147-0.098-0.261-0.098-0.391-0.226-35.8-29.301-64.735-65.133-64.735-35.972 0-65.134 29.161-65.134 65.134 0 0.14 0 0.281 0.001 0.421v-0.022h0.163c-0.033 0.31-0.163 0.57-0.163 0.88 0 0.001 0 0.002 0 0.003 0 4.5 3.648 8.148 8.148 8.148s8.148-3.648 8.148-8.148c0-0.001 0-0.002 0-0.003v0c0-0.31-0.163-0.57-0.196-0.88h0.196c0.705-26.459 22.322-47.64 48.886-47.64s48.181 21.181 48.885 47.575l0.001 0.065h0.065c0.228 4.318 3.732 7.757 8.082 7.757s7.822-3.438 8.050-7.757h0.098l-0.033-0.277 0.033-0.13zM779.496 320.929c0-4.481-3.064-8.115-6.779-8.115h-149.2c-3.748 0-6.779 3.634-6.779 8.115 0 4.514 3.031 8.18 6.779 8.18h139.684v111.688l-47.876 108.348h-81.737v-104.779h94.203c2.672 0 4.84-3.666 4.84-8.148s-2.167-8.148-4.84-8.148h-106.246c-2.672 0-4.84 3.666-4.84 8.148v121.058c0 4.498 2.070 8.164 4.644 8.164h102.188c1.499 0 2.738-1.271 3.601-3.145 0.098-0.163 0.293-0.261 0.342-0.424 0 0 51.884-118.011 51.95-118.451l0.033-0.163v-0.163c0.065-0.342 0.033-121.466 0.033-122.166z" />
<glyph unicode="&#xe903;" glyph-name="un_deliver" d="M596.423 530.603v-105.358c0-18.318-14.905-33.223-33.223-33.223h-99.556c-18.318 0-33.223 14.905-33.223 33.223v105.244h-96.711c-26.396 0-42.553-16.043-42.553-42.553v-219.705c0-26.396 16.043-42.553 42.553-42.553h358.286c26.396 0 42.553 16.043 42.553 42.553v219.819c0 26.396-16.043 42.553-42.553 42.553h-95.573zM682.439 267.321h-138.695c-7.623 0-13.881 6.258-13.881 13.881s6.258 13.881 13.881 13.881h138.695c7.623 0 13.881-6.258 13.881-13.881s-6.258-13.881-13.881-13.881zM696.32 349.241c0-7.623-6.258-13.881-13.881-13.881h-83.285c-7.623 0-13.881 6.258-13.881 13.881s6.258 13.881 13.881 13.881h83.285c7.623 0 13.881-6.258 13.881-13.881zM430.421 558.251l12.288 110.82h-27.307c-50.972 0-89.316-62.692-108.999-112.185 3.982 0.91 8.192 1.365 12.516 1.365h111.502zM611.328 669.070h-27.307l12.402-110.82h110.251c4.779 0 9.557-0.683 13.995-1.82-19.342 49.493-57.458 112.64-109.34 112.64v0zM483.1 419.669h60.644c13.767 0 25.031 11.264 25.031 25.031v113.55l-12.402 110.82h-86.016l-12.288-110.82v-113.55c0-13.767 11.264-25.031 25.031-25.031zM512 960c-282.738 0-512-229.262-512-512s229.262-512 512-512c282.738 0 512 229.262 512 512s-229.262 512-512 512zM762.084 253.44c0-30.492-24.917-55.41-55.41-55.41h-387.868c-30.492 0-55.41 24.917-55.41 60.985v249.401c0 2.844 0.341 5.803 1.024 8.647 7.851 61.781 61.44 179.769 138.126 179.769h221.639c83.172 0 138.012-138.581 138.012-193.991v-249.401h-0.114z" />
<glyph unicode="&#xe904;" glyph-name="tms-shop" d="M1024 529.238c0.106-71.64-57.177-129.812-127.968-129.956-34.007 0.052-66.601 13.772-90.612 38.144s-37.471 57.397-37.42 91.812c0.106-71.64-57.177-129.812-127.968-129.956-34.007 0.052-66.601 13.772-90.612 38.144s-37.471 57.397-37.42 91.812c0.106-71.64-57.177-129.812-127.968-129.956-34.018 0.034-66.629 13.748-90.654 38.121s-37.494 57.409-37.443 91.835c0.106-71.64-57.177-129.812-127.968-129.956-70.791 0.143-128.074 58.316-127.968 129.956l89.994 243.683h844.011l89.994-243.683zM864.024 821.606h-704.048c-26.544 0.072-48.015 21.887-47.98 48.75 0 26.837 21.461 48.613 47.98 48.685h704.048c26.519-0.072 47.98-21.847 47.98-48.685s-21.461-48.613-47.98-48.685v-0.065zM144.004 351.377c4.618 0.454 9.108 1.168 13.599 1.947l2.951 0.389c2.053 0.389 4.041 1.039 6.094 1.493 8.659 1.947 17.191 4.544 25.337 7.79v-239.788h640.032v239.658c8.146-3.246 16.678-5.712 25.337-7.79 2.053-0.389 4.041-1.039 6.158-1.428l2.886-0.389c20.38-3.642 41.245-3.51 61.579 0.389v-328.005c0-26.837-21.461-48.613-47.98-48.685h-735.992c-26.519 0.072-47.98 21.847-47.98 48.685v328.005c15.816-2.971 31.959-3.735 47.98-2.272z" />
<glyph unicode="&#xe905;" glyph-name="tms-split_line" d="M905.846-64h-787.692c-65.255 0-118.154 52.899-118.154 118.154v787.692c0 65.255 52.899 118.154 118.154 118.154h787.692c65.255 0 118.154-52.899 118.154-118.154v-787.692c0-65.255-52.899-118.154-118.154-118.154v0zM984.615 811.52c0.005 28.932-11.484 56.681-31.941 77.141s-48.203 31.954-77.135 31.954h-727.099c-28.929-0.005-56.67-11.502-77.122-31.961s-31.939-48.205-31.934-77.134v-727.040c-0.005-28.929 11.482-56.675 31.934-77.134s48.194-31.956 77.122-31.961h727.099c28.932 0 56.679 11.495 77.135 31.954s31.946 48.209 31.941 77.141v727.040zM216.615 822.154h590.769c43.503 0 78.769-35.266 78.769-78.769v-590.769c0-43.503-35.266-78.769-78.769-78.769h-590.769c-43.503 0-78.769 35.266-78.769 78.769v590.769c0 43.503 35.266 78.769 78.769 78.769z" />
<glyph unicode="&#xe906;" glyph-name="tms-item" d="M919.067 960h-814.204c-57.848 0-104.863-47.011-104.863-104.856v-814.29c0-57.844 47.014-104.854 104.863-104.854h814.275c57.848 0 104.862 47.011 104.862 104.854v814.362c-0.071 57.845-47.087 104.784-104.935 104.784h0.001zM826.336 669.047l-2.165-1.156-0.29-2.454c-22.318-154.033-156.427-270.227-311.916-270.227s-289.6 116.193-311.915 270.227l-0.361 2.454-2.167 1.156c-15.456 9.171-24.699 24.697-24.699 41.741 0 27.008 21.955 48.962 49.038 48.962 27.009 0 48.965-21.953 48.965-48.962 0-14.227-6.428-27.513-18.2-37.261l-2.311-1.805 0.505-2.889c20.582-129.191 130.429-222.927 261.146-222.927s240.563 93.806 261.146 222.927l0.507 2.817-2.239 1.805c-11.844 9.821-18.2 23.037-18.2 37.262 0 27.008 21.955 48.962 48.965 48.962v0 0 0c27.081 0 49.038-21.952 49.038-48.962-0.073-16.973-9.317-32.499-24.844-41.669h-0.003z" />
<glyph unicode="&#xe907;" glyph-name="tms-service_sale" d="M955.733 960h-887.466c-40.96 0-68.267-27.305-68.267-68.267v-887.466c0-40.96 27.305-68.267 68.267-68.267h887.466c40.96 0 68.267 27.305 68.267 68.267v887.466c0 40.96-34.133 68.267-68.267 68.267zM218.453 564.054l184.32 238.934c20.48 27.305 61.44 27.305 81.92 0l102.399-122.881 20.48 27.305c20.48 27.305 61.44 34.133 81.92 0l116.054-136.534c27.305-27.305 13.654-54.614-27.305-54.614h-539.307c-34.133-6.826-47.787 20.48-20.48 47.787v0.002zM955.733 4.269h-887.466v382.293h887.466v-382.293zM853.334 209.069h-682.666c-20.48 0-34.133 13.654-34.133 34.133s13.654 34.133 34.133 34.133h682.666c20.48 0 34.133-13.654 34.133-34.133s-13.654-34.133-34.133-34.133zM648.534 72.535h-477.865c-20.48 0-34.133 13.654-34.133 34.133s13.654 34.133 34.133 34.133h477.865c20.48 0 34.133-13.654 34.133-34.133s-13.654-34.133-34.133-34.133z" />
<glyph unicode="&#xe908;" glyph-name="tms-search" horiz-adv-x="983" d="M948.419 85.73c-19.666 21.85-183.414 193.101-183.414 193.101 101.184 164.761 91.893 399.506-53.147 552.403-162.818 171.688-426.882 171.688-589.699 0-162.88-171.689-162.88-450.013 0-621.826 145.009-152.835 363.761-158.922 526.888-55.002l190.631-190.794c40.324-34.369 86.534-40.019 122.832 2.372 31.003 36.149 27.348 70.238-14.093 119.746zM426.332 226.952c-155.508 0-281.594 131.232-281.594 293.057 0 161.887 126.086 293.088 281.594 293.088 155.539 0 281.624-131.202 281.624-293.088 0-161.825-126.085-293.057-281.624-293.057z" />
<glyph unicode="&#xe909;" glyph-name="tms-order" horiz-adv-x="860" d="M587.734 754.171h-327.92c-15.135 0-25.225 10.291-25.225 25.729v102.915c0 15.437 10.090 25.729 25.225 25.729h50.449v25.729c0 15.437 10.090 25.729 25.225 25.729h176.572c15.135 0 25.225-10.291 25.225-25.729v-25.729h50.449c15.135 0 25.225-10.291 25.225-25.729v-102.915c0-15.437-10.090-25.729-25.225-25.729v0zM739.082 867.377h-80.719v-110.633c0-20.583-15.135-36.020-35.314-36.020h-385.937c-20.18 0-35.314 15.437-35.314 36.020v110.633h-80.719c-65.584 0-121.078-54.030-121.078-123.497v-684.382c0-66.894 52.972-123.497 121.078-123.497h618.003c65.584 0 121.078 54.030 121.078 123.497v686.955c-2.522 66.894-55.494 120.925-121.078 120.925zM726.469 92.945c0-12.864-10.090-25.729-25.225-25.729h-544.852c-12.612 0-25.225 10.291-25.225 25.729v2.573c0 12.864 10.090 25.729 25.225 25.729h547.375c12.612-2.573 22.702-12.864 22.702-28.302zM186.662 229.307v5.146c0 12.864 10.090 23.156 22.702 23.156h441.431c12.612 0 22.702-10.291 22.702-23.156v-5.146c0-12.864-10.090-23.156-22.702-23.156h-441.431c-12.612 0-22.702 10.291-22.702 23.156zM739.082 368.241c0-12.864-10.090-25.729-25.225-25.729h-570.077c-12.612 0-25.225 10.291-25.225 25.729v2.573c0 12.864 10.090 25.729 25.225 25.729h570.077c15.135-2.573 25.225-12.864 25.225-28.302zM186.662 502.030v5.146c0 12.864 10.090 23.156 22.702 23.156h441.431c12.612 0 22.702-10.291 22.702-23.156v-5.146c0-12.864-10.090-23.156-22.702-23.156h-441.431c-12.612 0-22.702 10.291-22.702 23.156zM739.082 640.965c0-12.864-10.090-25.729-25.225-25.729h-570.077c-12.612 0-25.225 10.291-25.225 25.729v2.573c0 12.864 10.090 25.729 25.225 25.729h570.077c15.135 0 25.225-10.291 25.225-28.302z" />
<glyph unicode="&#xe90a;" glyph-name="tms-service_order" d="M670.583 819.397v63.409c0 18.117-18.124 36.233-36.247 36.233s-36.247-18.117-36.247-36.233v-63.409h72.494zM244.673 819.397v63.409c0 18.117-18.124 36.233-36.247 36.233s-36.247-18.117-36.247-36.233v-63.409h72.494zM842.762 357.417c-99.681 0-181.238-81.526-181.238-181.168s81.557-181.168 181.238-181.168c99.681 0 181.238 81.526 181.238 181.168s-81.557 181.168-181.238 181.168v0 0 0 0zM960.567 221.539l-126.867-126.818c-9.062-9.058-9.062-9.058-18.124-9.058s-9.062 0-18.124 9.058l-63.434 72.469c-9.062 9.058-9.062 27.174 0 36.233s27.185 9.058 36.247 0l54.372-54.351 108.743 108.701c9.062 9.058 27.185 9.058 36.247 0 0-9.058 0-27.174-9.062-36.233v0 0 0h0.001zM598.087 176.248c0 135.877 108.743 244.578 244.672 244.578v326.103c0 36.233-27.185 63.409-63.434 63.409h-117.805v-63.409c0-18.117-18.124-36.233-36.247-36.233s-36.247 18.117-36.247 36.233v72.469h-362.478v-63.409c0-18.117-18.124-36.233-36.247-36.233s-36.247 18.117-36.247 36.233v63.409h-90.62c-36.247 0-63.434-27.174-63.434-63.409v-715.618c0-36.233 27.185-63.409 63.434-63.409h661.523c-72.497 27.174-126.867 108.701-126.867 199.285v0 0 0l-0.003 0.002zM63.434 574.819c0 18.117 18.124 36.233 36.247 36.233h652.461c18.124 0 36.247-18.117 36.247-36.233s-18.124-36.233-36.247-36.233h-661.523c-18.124 9.058-27.185 18.117-27.185 36.233v0 0 0zM425.911 94.722h-280.92c-18.124 0-36.247 18.117-36.247 36.233s18.124 36.233 36.247 36.233h280.92c18.124 0 36.247-18.117 36.247-36.233-9.062-18.117-18.124-36.233-36.247-36.233v0 0 0zM425.911 294.007h-280.92c-18.124 0-36.247 18.117-36.247 36.233s18.124 36.233 36.247 36.233h280.92c18.124 0 36.247-18.117 36.247-36.233-9.062-27.174-18.124-36.233-36.247-36.233v0 0 0z" />
<glyph unicode="&#xe90b;" glyph-name="tms-article" horiz-adv-x="942" d="M63.039-61.109c-36.189 0-63.039 26.597-63.039 63.024v522.119c0 12.142 6.421 23.706 18.094 32.958 12.258 9.829 28.017 15.033 44.361 15.033h68.876v129.518c0 0.578 0 0.578 0.584 1.156 0 0.578 0 0.578 0.584 1.156 0 0.578 0 0.578 0.584 1.156 0 0.578 0.584 0.578 0.584 1.156s0.584 0.578 0.584 1.156c0 0.578 0.584 0.578 0.584 1.156s0.584 0.578 0.584 1.156c0 0.578 0.584 0.578 0.584 1.156l2.335 2.313 233.477 241.689h0.584c0.584 0.578 0.584 0.578 1.167 0.578l0.584 0.578c0 0 0.584 0 0.584 0.578l0.584 0.578v0.578l0.584 0.578h0.584l1.167 0.578 0.584 0.578h1.751c0 0 0.584 0 0.584 0.578h499.057c16.927 0 32.687-6.36 44.361-17.924s18.094-27.176 18.094-43.365v-900.264c0-34.114-28.017-61.29-63.039-61.29l-692.843-0.578c-2.335-0.578-4.086-0.578-6.421-0.578l-116.739 2.891zM388.156 554.1h318.696c14.009 0 25.682 11.564 25.682 25.441 0 13.299-11.090 24.863-25.099 24.863h-319.28c-14.009 0-25.682-10.986-25.682-24.863s11.674-25.441 25.682-25.441zM388.156 364.449h318.696c14.009 0 25.682 10.986 25.682 24.863 0 13.299-11.090 24.863-25.099 24.863h-319.28c-14.009 0-25.682-10.986-25.682-24.863 0-13.299 11.674-24.863 25.682-24.863zM388.156 175.377h318.696c14.009 0 25.682 10.986 25.682 24.863s-11.090 25.441-25.099 25.441h-319.28c-14.009 0-25.682-11.564-25.682-25.441 0-13.299 11.674-24.863 25.682-24.863zM63.039 522.299c-2.335 0-4.67-0.578-7.004-1.156l-4.67-1.735v-517.493c0-8.673 3.502-12.72 12.258-12.72h69.459l-0.584 7.517v525.588h-69.459zM192.619 696.917h160.515c15.176 0 27.434 15.033 27.434 33.536v161.319l-187.949-194.855z" />
<glyph unicode="&#xe90c;" glyph-name="tms-customer_menu" horiz-adv-x="901" d="M582.71-26.208c-1.843-4.058-5.797-7.443-11.75-9.48l-79.255-26.88c-14.235-4.84-21.898 2.985-17.187 17.481l26.433 80.637c1.999 6.098 5.357 10.125 9.358 11.997l249.89 254.307 72.445-73.72-249.933-254.343zM361.512 1.798l362.79 369.203v326.41h-181.061c-39.989 0-72.443 33.016-72.443 73.716v188.872h-366.637c-57.551 0-104.161-47.444-104.161-105.97v-769.292c0-45.821 36.513-82.94 81.513-82.94h280zM579.245 948.159l137.54-139.964c19.498-19.844 12.93-35.941-14.603-35.941h-108.332c-27.569 0-49.947 22.782-49.947 50.804v110.216c0 28.057 15.814 34.7 35.318 14.861l0.024 0.024zM144.858 554.616c0 20.352 16.255 36.858 36.214 36.858h362.169c20.001 0 36.218-16.543 36.218-36.858 0-20.351-16.247-36.857-36.218-36.857h-362.17c-19.988 0-36.213 16.544-36.213 36.857zM144.858 407.18c0 20.344 16.255 36.857 36.214 36.857h362.169c20.001 0 36.218-16.539 36.218-36.857 0-20.352-16.247-36.857-36.218-36.857h-362.17c-19.988 0-36.213 16.539-36.213 36.857zM776.769 317.242l41.901 42.629c10.614 10.799 27.812 10.761 38.409 0.027l36.118-36.763c10.587-10.768 10.55-28.306-0.031-39.081l-41.896-42.634-74.501 75.823z" />
<glyph unicode="&#xe90d;" glyph-name="tms-customer_service" d="M510.286 829.356c-159.143 0-288.143-126.356-288.143-282.3s129-282.3 288.143-282.3c159.143 0 288.143 126.356 288.143 282.3s-129 282.3-288.143 282.3zM177.429 438.709v260.574c-3.714 0-7.286-0.143-10.857-0.429 59 128.214 190.571 217.55 343.571 217.55s284.571-89.336 343.571-217.55c-3.571 0.286-7.143 0.429-10.857 0.429v-260.574c73.571 0 133.143 58.318 133.143 130.358 0 48.884-27.571 91.48-68.143 113.778-57.286 161.233-213.429 277.155-397.714 277.155s-340.571-115.779-397.714-277.155c-40.714-22.298-68.143-64.893-68.143-113.778 0.143-72.040 59.714-130.358 133.143-130.358zM797.857 289.34c-75.286-68.896-176.429-111.062-287.571-111.062-111 0-211.857 42.023-287.143 110.633-134.714-67.895-223.143-188.677-223.143-352.911h1024c0 164.52-90.143 285.445-226.143 353.34v0z" />
<glyph unicode="&#xe90e;" glyph-name="tms-service_sale2" d="M955.733 960h-887.466c-40.96 0-68.267-27.305-68.267-68.267v-887.466c0-40.96 27.305-68.267 68.267-68.267h887.466c40.96 0 68.267 27.305 68.267 68.267v887.466c0 40.96-34.133 68.267-68.267 68.267zM218.453 564.054l184.32 238.934c20.48 27.305 61.44 27.305 81.92 0l102.399-122.881 20.48 27.305c20.48 27.305 61.44 34.133 81.92 0l116.054-136.534c27.305-27.305 13.654-54.614-27.305-54.614h-539.307c-34.133-6.826-47.787 20.48-20.48 47.787v0.002zM955.733 4.269h-887.466v382.293h887.466v-382.293zM853.334 209.069h-682.666c-20.48 0-34.133 13.654-34.133 34.133s13.654 34.133 34.133 34.133h682.666c20.48 0 34.133-13.654 34.133-34.133s-13.654-34.133-34.133-34.133zM648.534 72.535h-477.865c-20.48 0-34.133 13.654-34.133 34.133s13.654 34.133 34.133 34.133h477.865c20.48 0 34.133-13.654 34.133-34.133s-13.654-34.133-34.133-34.133z" />
<glyph unicode="&#xe90f;" glyph-name="tms-contact_info" d="M161.265 960h701.468c89.070 0 161.266-71.634 161.266-160.020v-704.022c0-88.324-72.195-159.958-161.266-159.958h-701.468c-89.070 0-161.265 71.635-161.265 159.958v704.022c0 88.386 72.195 160.020 161.265 160.020zM335.313 734.8c-32.722 0-111.292-59.383-111.292-113.826 0-159.082 286.339-462.181 464.698-462.181 49.067 0 111.261 52.757 111.261 113.888 0 20.941-127.636 113.828-157.075 113.828-30.254 0-52.349-26.816-78.539-26.816-26.127 0-143.95 118.075-143.95 147.391 0 29.253 26.127 43.568 26.127 73.697-0.001 21.755-78.571 154.019-111.229 154.019z" />
<glyph unicode="&#xe910;" glyph-name="tms-bottom_nav" d="M512.024 959.999c0 0-316.744-303.799-493.744-468.329-10.41-10.454-18.28-25.729-18.28-43.692 0-31.447 22.888-56.877 51.19-56.877h102.419v-398.224c0-31.451 22.886-56.877 51.19-56.877h153.61c28.303 0 51.189 25.472 51.189 56.877v227.55h204.8v-227.548c0-31.406 22.886-56.877 51.19-56.877h153.61c28.303 0 51.189 25.427 51.189 56.877v398.224h102.421c28.303 0 51.189 25.428 51.189 56.877 0 17.963-7.873 33.239-19.624 43.692-175.766 164.529-492.434 468.328-492.434 468.328h0.076l0.005-0.001z" />
<glyph unicode="&#xe911;" glyph-name="tms-shop_header" d="M1024 529.238c0.106-71.64-57.176-129.812-127.968-129.956-34.007 0.052-66.601 13.772-90.612 38.144s-37.471 57.397-37.42 91.812c0.106-71.64-57.177-129.812-127.968-129.956-34.007 0.052-66.601 13.772-90.612 38.144s-37.471 57.397-37.42 91.812c0.106-71.64-57.177-129.812-127.968-129.956-34.018 0.034-66.629 13.748-90.654 38.121s-37.494 57.409-37.443 91.835c0.106-71.64-57.177-129.812-127.968-129.956-70.791 0.143-128.074 58.316-127.968 129.956l89.994 243.683h844.011l89.994-243.683zM864.024 821.606h-704.048c-26.544 0.072-48.015 21.887-47.98 48.75 0 26.837 21.461 48.613 47.98 48.685h704.048c26.519-0.072 47.98-21.847 47.98-48.685s-21.461-48.613-47.98-48.685v-0.065zM144.004 351.377c4.618 0.454 9.109 1.168 13.599 1.947l2.951 0.389c2.053 0.389 4.041 1.039 6.094 1.493 8.659 1.947 17.191 4.544 25.337 7.79v-239.788h640.032v239.658c8.146-3.246 16.678-5.712 25.337-7.79 2.053-0.389 4.041-1.039 6.158-1.428l2.886-0.389c20.38-3.642 41.245-3.51 61.579 0.389v-328.005c0-26.837-21.461-48.613-47.98-48.685h-735.992c-26.519 0.072-47.98 21.847-47.98 48.685v328.005c15.816-2.971 31.959-3.735 47.98-2.272z" />
<glyph unicode="&#xe912;" glyph-name="tms-top_nav" d="M972.8 878.080h-614.4c-30.72 0-51.2-20.239-51.2-50.598v-50.598c0-30.359 20.48-50.598 51.2-50.598h614.4c30.72 0 51.2 20.239 51.2 50.598v50.598c0 30.359-20.48 50.598-51.2 50.598zM102.4 878.080h-51.2c-25.6 0-51.2-25.299-51.2-50.598v-50.598c0-25.299 25.6-50.598 51.2-50.598h51.2c25.6 0 51.2 25.299 51.2 50.598v50.598c0 25.299-25.6 50.598-51.2 50.598zM102.4 523.896h-51.2c-25.6 0-51.2-25.299-51.2-50.598v-50.598c0-25.299 25.6-50.598 51.2-50.598h51.2c25.6 0 51.2 25.299 51.2 50.598v50.598c0 25.299-25.6 50.598-51.2 50.598v0zM972.8 523.896h-614.4c-30.72 0-51.2-20.239-51.2-50.598v-50.598c0-30.359 20.48-50.598 51.2-50.598h614.4c30.72 0 51.2 20.239 51.2 50.598v50.598c0 30.359-20.48 50.598-51.2 50.598v0zM102.4 169.713h-51.2c-25.6 0-51.2-25.299-51.2-50.598v-50.598c0-25.299 25.6-50.598 51.2-50.598h51.2c25.6 0 51.2 25.299 51.2 50.598v50.598c0 25.299-25.6 50.598-51.2 50.598zM972.8 169.713h-614.4c-30.72 0-51.2-20.239-51.2-50.598v-50.598c0-30.359 20.48-50.598 51.2-50.598h614.4c30.72 0 51.2 20.239 51.2 50.598v50.598c0 30.359-20.48 50.598-51.2 50.598z" />
<glyph unicode="&#xe913;" glyph-name="tms-text" d="M1023.012 202.451c0 190.088 0 380.177 0 570.116 0 34.805 0 5.503 0 40.16 0 16.956 2.234 37.482-0.894 52.802-6.108 31.086-21.451 55.331-42.306 71.097-12.96 9.817-28.452 16.807-46.924 20.972-19.961 4.462-47.222 1.339-69.418 1.339-45.583 0-91.167 0-136.601 0-208.7 0-417.549 0-626.249 0-9.385-3.867-21.6-3.57-30.836-7.437-25.622-10.56-43.945-29.45-57.054-52.802-14.152-25.137-12.215-64.85-12.215-105.158 0-33.466 0-2.826 0-36.292 0-162.869 0-325.738 0-488.459 0-54.587 0-109.174 0-163.762 0-29.45-2.681-64.701 4.171-87.756 11.768-39.416 40.37-67.825 80.441-78.088 15.194-3.867 35.603-2.677 54.223-2.677 30.836 0 61.82 0 92.656 0 171.459 0 343.066 0 514.525 0 41.412 0 82.973 0 124.386 0 22.643 0 49.307-2.231 68.077 2.677 18.174 4.611 33.070 13.238 45.732 23.501 18.025 14.725 31.432 37.78 37.241 64.999 3.575 16.956 1.341 104.415 1.341 123.453-0.298 38.523-0.298 12.94-0.298 51.315zM255.247 768.551c235.365-0.297 278.267-0.595 513.631-0.892 0-42.688 0-21.27 0-63.809-235.514 0-278.565 0-514.078 0 0.149 42.837 0.298 21.716 0.447 64.701zM383.655 576.232c235.365-0.297 149.859-0.595 385.223-0.892 0-42.688 0-21.27 0-63.809-235.514 0-150.157 0-385.67 0 0.149 42.837 0.298 21.716 0.447 64.701zM511.765 383.615c171.31-0.297 85.804-0.595 257.114-0.892-0.149-42.688-0.298-21.27-0.447-63.809-171.161 0-85.506 0-256.667 0 0 42.986 0 21.865 0 64.701zM768.431 126.445c-171.161 0.297-21.302 0.595-192.463 0.892 0 42.688 0 21.27 0 63.809 171.31 0 21.6 0 193.059 0-0.298-42.986-0.447-21.865-0.596-64.701z" />
<glyph unicode="&#xe914;" glyph-name="tms-personal_info" d="M208.836 661.227c34.609 0.001 62.667 34.020 62.666 75.986v85.361c0 41.968-28.056 75.986-62.666 75.986s-62.667-34.020-62.665-75.986v-85.361c0-41.968 28.056-75.986 62.665-75.986zM1023.489 742.798c-2.815 69.549-67.99 64.959-67.99 64.959h-37.386v-120.739c0 0-0.851-52.982-52.935-53.090l-9.811-0.018c-16.882 0.031-47.075 0.062-80.649-0.005-7.785 0.009-12.955 0.019-14.436 0.022-53.020 1.696-50.554 51.715-50.554 51.715v122.116h-395.459v-122.116c0 0 2.466-50.019-50.554-51.715-1.48-0.003-6.65-0.012-14.436-0.022-33.575 0.068-63.769 0.036-80.649 0.005-3.267 0.005-6.542 0.011-9.811 0.018-52.084 0.108-52.935 53.090-52.935 53.090v120.739h-37.386c0 0-65.175 4.59-67.99-64.959-0.411-2.818-0.509-4.488-0.509-4.488s0.109-642.732 0.109-671.214c0-69.023 70.866-69.657 70.866-69.657h882.048c0 0 70.866 0.635 70.866 69.657 0 28.481 0.109 671.214 0.109 671.214s-0.098 1.669-0.509 4.488h-0.002zM513.389 138.93c0-52.753-102.322-64.745-198.376-64.745-95.91 0-199.544 11.992-199.544 64.745v14.507c0 38.717 70.724 77.939 131.017 99.455 4.355 1.576 25.169 12.761 13.531 42.895-29.863 30.095-52.427 78.864-52.427 126.86 0 73.516 49.258 112.041 106.858 112.041 57.563 0 107.106-38.525 107.106-112.041 0-47.802-22.691-96.377-52.374-126.547h0.158c-11.391-34.171 6.838-42.282 9.724-43.209 63.25-20.66 134.327-59.566 134.327-99.455v-14.507zM864.789 163.144h-223.73c-26.537 0-48.048 21.23-48.048 47.418s21.512 47.418 48.048 47.418h223.73c26.537 0 48.048-21.23 48.048-47.418s-21.512-47.418-48.048-47.418zM864.789 350.895h-223.73c-26.537 0-48.048 21.231-48.048 47.418 0 26.189 21.512 47.418 48.048 47.418h223.73c26.537 0 48.048-21.231 48.048-47.418 0-26.189-21.512-47.418-48.048-47.418zM815.461 661.227c34.609 0.001 62.665 34.020 62.665 75.986v85.361c0 41.968-30.413 75.986-65.022 75.986s-60.31-34.020-60.309-75.986v-85.361c0-41.968 28.056-75.986 62.666-75.986v0z" />
<glyph unicode="&#xe915;" glyph-name="tms-notice_service" d="M161.265 960h701.468c89.070 0 161.266-71.634 161.266-160.020v-704.022c0-88.324-72.195-159.958-161.266-159.958h-701.468c-89.070 0-161.265 71.635-161.265 159.958v704.022c0 88.386 72.195 160.020 161.265 160.020zM844.902 177.67h-0.002v416.5c0 11.598-9.22 20.825-20.524 20.825h-145.182l-113.644 113.643c15.767 26.183 10.113 59.8-13.383 79.728-23.503 19.638-57.717 19.638-80.923-0.296-23.207-20.228-28.562-53.846-12.793-80.024l-113.049-113.35h-145.779c-11.304 0-20.526-9.519-20.526-20.824v-416.202c0-11.308 9.222-20.825 20.526-20.825h624.751c11.3 0 20.528 9.518 20.528 20.825zM533.119 701.568c-13.681-4.762-28.558-5.060-41.948-0.298l-86.867-86.873h215.986l-87.17 87.171zM262.098 323.146h332.908v-41.654h-332.908v41.654zM262.098 489.745h208.252v-41.649h-208.252v41.649zM262.098 406.445h457.86v-41.649h-457.86v41.649z" />
<glyph unicode="&#xe916;" glyph-name="tms-image_list" d="M765.818 534.036c43.194-0.796 83.45 21.977 105.278 59.557s21.828 84.111 0 121.69c-21.828 37.58-62.084 60.353-105.278 59.557-65.118-1.199-117.284-54.752-117.284-120.402s52.166-119.203 117.284-120.402zM959.969 878.080h-895.938c-35.669 0-64.031-29.99-64.031-66.843v-726.475c0-36.852 28.362-66.843 64.031-66.843h895.938c35.668 0 64.031 29.991 64.031 66.843v726.475c0 36.853-28.363 66.843-64.031 66.843zM697.188 418.374c-11.771 0-20.067-5.865-29.587-13.951l-43.216-38.754c-9.007-6.871-16.197-11.521-26.546-11.521-9.354-0.061-18.405 3.516-25.44 10.055-3.387 3.274-6.706 6.627-9.955 10.055l-124.315 142.615c-9.736 11.789-23.818 18.515-38.594 18.435-15.485 0-29.824-8.129-38.831-19.147l-292.439-325.706v590.114c2.291 16.675 14.538 28.699 30.259 28.699h826.711c15.959 0 28.877-12.527 29.824-29.411l0.672-589.904-229.038 213.214c-7.243 9.371-18.035 14.918-29.508 15.208z" />
<glyph unicode="&#xe917;" glyph-name="tms-video" d="M984.615 919.040h-39.385v-78.506h-118.154v78.506h-630.153v-78.506h-118.154v78.506h-39.385c-21.701 0-39.385-17.625-39.385-39.254v-863.573c0-21.629 17.684-39.254 39.385-39.254h39.385v39.254h118.154v-39.254h630.153v39.254h118.154v-39.254h39.385c21.701 0 39.385 17.625 39.385 39.254v863.573c0 21.629-17.684 39.254-39.385 39.254zM196.925 133.975h-118.154v117.76h118.154v-117.76zM196.925 369.495h-118.154v117.76h118.154v-117.76zM196.925 605.014h-118.154v117.76h118.154v-117.76zM692.698 422.251l-256.118-148.888c-4.175-2.080-8.743-3.062-13.273-3.062-5.435 0-10.713 1.452-15.518 4.279-8.665 5.221-13.942 14.563-13.942 24.533v297.736c0 10.010 5.278 19.352 13.942 24.573 8.743 5.26 19.653 5.731 28.751 1.178l256.118-148.848c9.964-4.907 16.266-14.837 16.266-25.75s-6.302-20.843-16.226-25.75v-0.001zM945.231 133.975h-118.154v117.76h118.154v-117.76zM945.231 369.495h-118.154v117.76h118.154v-117.76zM945.231 605.014h-118.154v117.76h118.154v-117.76z" />
<glyph unicode="&#xe918;" glyph-name="tms-image_set" d="M298.661 318.974l192 258.051 149.339-193.972 106.661 129.459 149.339-193.539h-597.339zM938.661 792.074h-341.322l-85.339 86.006h-256c-46.939 0-84.91-38.708-84.91-86.006l-0.43-516.103c0.132-47.454 38.262-85.89 85.339-86.023h682.661c47.077 0.133 85.207 38.569 85.339 86.023v430.080c-0.132 47.454-38.262 85.89-85.339 86.023v0zM85.339 706.051h-85.339v-215.049h0.43l-0.43-387.077c0.142-47.447 38.269-85.872 85.339-86.006h768v86.006h-768v602.126z" />
<glyph unicode="&#xe919;" glyph-name="tms-audio" horiz-adv-x="901" d="M896.618 693.559l-258.925 261.991c-2.199 2.225-4.398 3.337-7.147 3.894l-538.74 0.556c-50.576 0-91.806-41.718-91.806-92.893v-839.327c0-50.618 40.68-91.78 90.706-91.78h719.603c50.026 0 90.706 41.162 90.706 91.78v653.542c0.55 4.45-1.099 8.9-4.398 12.237zM630.546 319.764c0-1.669 0-3.337-0.55-5.006 0-1.669 0-3.337-0.55-5.562-6.597-38.937-37.932-70.643-70.366-70.643s-52.775 31.706-45.628 70.643c6.597 38.937 37.932 70.643 70.366 70.643 1.649 0 2.749-0.556 3.848-0.556v171.323l-199.004-33.931v-228.616c0-5.562 0-11.125-1.099-16.687-6.597-38.937-37.932-70.643-70.366-70.643-31.885 0-52.775 31.706-45.628 70.643 6.597 38.937 37.932 70.643 70.366 70.643 1.649 0 2.749-0.556 3.848-0.556v193.573c0 10.569 7.696 20.025 18.141 21.693l241.883 41.718c6.047 1.112 12.644-0.556 17.592-5.006s7.696-10.012 7.696-16.687v-250.866l-0.55-6.119zM721.252 681.878c-50.026 0-90.706 41.162-90.706 91.78v143.511l233.088-235.291h-142.381z" />
<glyph unicode="&#xe91a;" glyph-name="tms-middle_nav" d="M930.816-64h-289.792c-51.712 0-93.184 65.602-93.184 117.365v264.969c0 51.764 41.984 93.277 93.184 93.277h289.792c51.2 0 93.184-42.026 93.184-93.277v-289.057c0-51.764-41.984-93.277-93.184-93.277zM930.816 483.876h-289.792c-51.712 0-93.184 65.602-93.184 117.365v265.482c0 51.764 41.984 93.277 93.184 93.277h289.792c51.2 0 93.184-42.026 93.184-93.79v-289.057c0-51.251-41.984-93.277-93.184-93.277v0zM382.976-64h-289.792c-51.712 0-93.184 65.602-93.184 117.365v264.969c0 51.764 41.984 93.277 93.184 93.277h289.792c51.712 0 93.184-42.026 93.184-93.277v-289.057c0.512-51.764-41.472-93.277-93.184-93.277zM382.976 483.876h-289.792c-51.712 0-93.184 65.602-93.184 117.365v265.482c0 51.764 41.984 93.277 93.184 93.277h289.792c51.712 0 93.184-42.026 93.184-93.277v-289.057c0.512-51.764-41.472-93.79-93.184-93.79v0z" />
<glyph unicode="&#xe91b;" glyph-name="tms-service" horiz-adv-x="983" d="M675.247 394.165c10.956 43.41 50.557 75.651 97.606 75.651 14.253 0 28.349-3.074 41.269-8.86v439.794c0 32.723-26.701 59.25-59.634 59.25h-694.859c-32.931 0-59.629-26.527-59.629-59.25v-846.745c0-32.718 26.698-59.245 59.629-59.245h517.329c1.42 1.788 2.913 3.529 4.563 5.167l9.035 8.978c-40.080 44.334-62.505 101.722-62.505 162.215 0 97.641 58.299 184.7 147.195 223.044zM247.078 760.416h319.967c19.108 0 34.603-15.397 34.603-34.385 0-18.99-15.495-34.381-34.603-34.381h-319.967c-19.115 0-34.611 15.392-34.611 34.381 0.001 18.988 15.497 34.385 34.611 34.385zM247.078 581.536h319.967c19.108 0 34.603-15.397 34.603-34.386 0-18.991-15.495-34.386-34.603-34.386h-319.967c-19.115 0-34.611 15.395-34.611 34.386 0.001 18.988 15.497 34.386 34.611 34.386zM212.468 368.27c0 18.985 15.497 34.384 34.611 34.384h319.967c19.108 0 34.603-15.399 34.603-34.384 0-18.992-15.495-34.388-34.603-34.388h-319.967c-19.116 0-34.611 15.397-34.611 34.388zM905.685 9.412c47.185 38.322 77.355 96.58 77.355 161.709 0 92.268-60.542 170.731-144.229 198.285 0 0.148 0.039 0.296 0.039 0.451 0 20.645-9.672 39.068-24.73 51.095-11.31 9.035-25.658 14.478-41.269 14.478-36.397 0-66.001-29.411-66.001-65.573 0-0.155 0.032-0.303 0.044-0.451-83.686-27.549-144.24-106.017-144.24-198.285 0-65.129 30.177-123.387 77.355-161.709l-34.019-33.802c-9.121-9.064-9.121-23.756 0-32.818 4.561-4.527 10.541-6.793 16.515-6.793 5.972 0 11.949 2.266 16.512 6.793l41.184 40.914c27.964-13.699 59.416-21.411 92.652-21.411 33.226 0 64.673 7.712 92.64 21.411l41.184-40.914c4.563-4.527 10.539-6.793 16.52-6.793 5.979 0 11.949 2.266 16.507 6.793 9.13 9.061 9.13 23.754 0 32.818l-34.019 33.802zM772.851 412.233c19.899 0 36.593-13.639 41.269-31.989 0.377-1.488 0.697-2.986 0.916-4.527-0.299 0.063-0.611 0.104-0.916 0.167-13.346 2.651-27.15 4.063-41.269 4.063-14.454 0-28.561-1.457-42.199-4.229 2.891 20.593 20.683 36.515 42.199 36.515zM794.502 10.164c-7.094-0.931-14.301-1.464-21.65-1.464-90.144 0-163.482 72.862-163.482 162.421s73.338 162.419 163.482 162.419c14.253 0 28.080-1.834 41.269-5.254 70.224-18.212 122.21-81.77 122.21-157.164 0-82.264-61.888-150.391-141.83-160.957zM877.158 182.719h-65.235c-4.174 13.847-15.614 24.576-29.896 27.859v36.858c0 6.41-5.229 11.603-11.677 11.603s-11.675-5.193-11.675-11.603v-38.362c-15.517-5.738-26.621-20.56-26.621-37.953 0-22.349 18.302-40.532 40.799-40.532 18.437 0 34.038 12.221 39.070 28.926h65.235c6.451 0 11.677 5.195 11.677 11.606 0.001 6.407-5.226 11.598-11.677 11.598zM772.851 153.787c-9.621 0-17.447 7.777-17.447 17.335 0 9.551 7.825 17.328 17.447 17.328 9.611 0 17.437-7.777 17.437-17.328 0-9.558-7.825-17.335-17.437-17.335z" />
<glyph unicode="&#xe91c;" glyph-name="tms-title" horiz-adv-x="901" d="M649.367 960v-363.599h-397.615v363.599h-251.753v-1024h251.753v430.397h397.615v-430.397h251.753v1024z" />
<glyph unicode="&#xe91d;" glyph-name="tms-form" horiz-adv-x="942" d="M612.354 946.551v-218.433h221.857l-221.857 218.433zM472.191 113.153l301.25 296.353c19.549 19.472 45.903 31.771 74.429 35.032v237.201h-259.071c-12.977 0-23.553 10.441-23.553 23.189v255.072h-541.693c-12.977 0-23.553-10.441-23.553-23.189v-977.622c0-12.751 10.58-23.189 23.553-23.189h404.616c-4.967 12.973-5.427 27.13-1.884 40.581l26.127 103.192c3.081 12.275 10.118 24.578 19.779 33.38zM498.131 68.411l-26.404-103.644c-2.12-7.903 0.228-16.237 6.12-22.035 4.507-4.394 10.628-6.721 16.744-6.721 1.884 0 3.771 0.225 5.657 0.698l105.246 25.951c4.002 0.955 7.769 3.033 10.857 6.046l246.33 242.55-112.101 110.371-246.333-242.55c-3.077-2.786-5.193-6.724-6.116-10.666zM806.657 376.807l-22.861-22.484 112.101-110.371 22.861 22.487c31.097 30.364 31.097 80.006 0 110.366-29.9 29.69-82.201 29.69-112.101 0.001z" />
<glyph unicode="&#xe91e;" glyph-name="tms-edit" d="M10.715-53.524c9.586-9.582 23.726-12.936 36.908-8.624l389.448 129.834c0 0 2.397 0.958 3.116 1.198 6.231 2.635 11.024 7.426 11.024 7.426l504.724 504.964c0.24 0.479 8.628 9.821 9.586 11.019 18.454 21.799 57.518 75.218 58.477 148.998 0.24 47.67-19.173 101.807-68.063 150.435-48.651 49.107-102.814 68.51-150.507 68.271-95.385-1.198-156.977-66.115-160.093-68.271l-504.964-504.964c0 0-5.273-5.749-7.429-11.019-0.479-1.198-1.198-3.114-1.198-3.114l-129.896-389.503c-4.314-12.936-0.959-27.069 8.867-36.651zM109.934 79.664c0 0 16.776 3.593 28.28-6.947 10.785-9.821 10.785-25.392 10.785-25.392l-56.080-18.685 17.016 51.023zM187.584 312.503l131.334-57.731 57.758-131.511-155.779-51.982c-5.512 15.81-14.859 35.453-30.676 51.503-17.256 17.487-38.106 26.111-55.601 30.662l52.965 159.059zM437.31 164.224l-48.172 109.712 418.686 418.967 79.088-79.050-449.602-449.629zM696.143 840.704c0.24 0.719 50.808 48.628 109.285 47.191 29.239-0.24 61.593-9.821 99.699-47.191 37.387-37.848 46.734-70.187 47.213-99.651 0.479-26.829-9.586-51.263-20.611-70.666l-98.5 98.454c-6.71 6.707-15.818 10.54-25.404 10.54s-18.693-3.833-25.404-10.54l-444.090-444.359-109.764 48.388 467.577 467.835z" />
<glyph unicode="&#xe91f;" glyph-name="show_statistics" d="M1024 448c0-282.759-229.241-512-512-512-282.768 0-512 229.241-512 512 0 282.768 229.232 512 512 512 282.759 0 512-229.232 512-512zM776.524 200.12l-142.561 129.527c39.119 42.074 63.299 98.996 63.299 161.774 0 129.069-101.978 234.074-227.4 234.074-125.35 0-227.337-105.005-227.337-234.074 0-129.141 101.951-234.2 227.337-234.2 52.332 0 100.46 18.495 138.995 49.188l143.89-130.803c3.288-3.332 7.554-5.093 11.929-5.093 4.303 0 8.596 1.761 11.857 5.057 6.593 6.8 6.593 17.83-0.009 24.549zM469.863 291.984c-106.739 0-193.671 89.42-193.671 199.437 0 109.927 86.932 199.42 193.671 199.42 106.81 0 193.716-89.492 193.716-199.42 0-110.017-86.914-199.437-193.716-199.437zM522.968 483.723h-173.882c-8.003 0-14.489-6.476-14.489-14.489 0-8.003 6.494-14.489 14.489-14.489h173.873c8.003 0 14.471 6.494 14.471 14.489s-6.467 14.489-14.462 14.489zM465.004 425.759h-115.919c-8.003 0-14.489-6.494-14.489-14.48 0-8.003 6.494-14.489 14.489-14.489h115.91c8.003 0 14.489 6.494 14.489 14.489 0.009 7.994-6.485 14.48-14.48 14.48zM349.085 512.701h144.896c8.003 0 14.489 6.494 14.489 14.48 0 8.021-6.494 14.489-14.489 14.489h-144.896c-8.003 0-14.489-6.476-14.489-14.489 0-7.985 6.494-14.48 14.489-14.48zM551.927 599.633h-202.842c-8.003 0-14.489-6.476-14.489-14.489 0-8.003 6.494-14.489 14.489-14.489h202.842c8.012 0 14.498 6.494 14.498 14.489s-6.485 14.489-14.498 14.489z" />
<glyph unicode="&#xe920;" glyph-name="add_service" d="M512 960c-282.77 0-512-229.231-512-512s229.23-512 512-512c282.77 0 512 229.231 512 512s-229.23 512-512 512zM530.558 455.161c-0.732-0.568-0.907-1.136-2.77-1.703 0-1.68 0-3.36 0-5.041 0-71.813 0.436-142.713 0.726-214.524 0.041-10.273-2.566-17.795-12.269-20.56-2.89 0-5.781 0-8.672 0-9.703 2.765-12.266 10.287-12.225 20.56 0.29 71.812 0.769 142.712 0.769 214.524 0 1.687 0 3.372 0 5.059-1.863 0.561-2.081 1.124-2.814 1.685-0.774-1.575-1.503-3.499-2.685-4.673-11.331-11.256-22.887-22.443-34.39-33.525-5.831-5.618-13.198-6.773-20.004-3.555-6.316 2.985-10.519 9.309-9.366 16.234 0.635 3.819 2.479 8.109 5.188 10.812 22.276 22.218 44.822 44.162 67.404 66.077 7.514 7.291 17.419 7.29 24.934-0.002 22.582-21.915 45.084-43.91 67.513-65.979 7.16-7.044 7.186-17.17 0.456-23.854-6.703-6.657-17.070-6.873-24.242-0.046-11.686 11.124-23.44 22.472-34.889 33.837-1.182 1.173-1.889 3.097-2.663 4.673zM789.33 417.568c0-3.611-1.417-7.245-2.321-10.831-9.528-37.802-43.506-64.795-82.668-65.062-40.623-0.278-81.225-0.109-121.849-0.072-10.921 0.010-18.481 7.169-18.432 17.153 0.049 9.957 7.676 16.923 18.655 16.931 40.298 0.030 80.601-0.12 120.898 0.094 23.808 0.127 44.432 16.716 49.748 39.348 7.316 31.15-15.839 61.402-48.031 62.751-14.035 0.587-19.487 6.127-19.896 20.212-2.184 75.369-57.865 137.405-133.293 148.504-69.952 10.294-139.517-25.658-168.302-87.522-4.609-9.905-7.507-20.688-10.36-31.288-2.876-10.683-8.483-15.704-19.627-15.803-11.551-0.103-23.119 0.63-34.486-2.642-31.418-9.045-52.306-38.118-50.005-69.977 2.337-32.362 26.937-58.472 59.336-62.825 4.346-0.584 8.771-0.8 13.16-0.809 33.283-0.065 66.566-0.014 99.849-0.049 9.553-0.010 16.915-6.045 17.962-14.527 1.303-10.563-6.075-19.455-16.839-19.49-36.708-0.123-73.44-0.798-110.12 0.231-49.247 1.381-90.831 40.030-97.288 88.586-0.121 0.913-0.755 1.78-0.755 2.668 0 7.141 0 14.282 0 21.423 0 3.759 1.396 7.533 2.272 11.275 10.982 46.955 52.167 79.812 100.678 80.256 1.297 0.012 2.559 0.002 4.136 0.002 1.932 5.543 3.557 11.107 5.76 16.443 25.357 61.417 71.39 99.679 135.685 114.337 71.95 16.403 135.104-2.11 186.588-55.368 28.797-29.789 44.899-66.021 49.254-107.226 0.311-2.95 1.46-3.932 4.257-4.719 36.791-10.351 58.908-33.968 65.397-71.743 0.105-0.61 0.641-1.174 0.641-1.759-0.003-6.168-0.003-12.335-0.003-18.502z" />
<glyph unicode="&#xe921;" glyph-name="service_list" d="M512-64c-282.765 0-512 229.235-512 512s229.235 512 512 512c282.765 0 512-229.235 512-512s-229.235-512-512-512zM819.2 608.738l-146.462 146.462h-268.514c-36.018 0-48.821-16.636-48.821-48.821 0-7.274 0-36.616 0-36.616h-73.231c-44.268 0-48.821-23.336-48.821-61.026v-378.361c0-37.69 4.553-61.026 48.821-61.026h358.015c44.268 0 69.167 47.747 69.167 85.436h48.821c44.268 0 61.026 23.336 61.026 61.026v292.925zM758.174 279.197h-341.745c-21.957 0-36.616 17.966-36.616 36.616v378.361c0 23.605 12.23 36.616 36.616 36.616h231.899c-0.342-42.169 0-85.436 0-85.436 0-38.031 16.453-61.026 61.026-61.026 0 0 44.891 0 85.436 0v-268.514c0-18.65-14.658-36.616-36.616-36.616zM672.738 486.686h-195.283v-24.41h195.283v24.41zM672.738 413.455h-195.283v-24.41h195.283v24.41zM672.738 645.353v73.231l109.847-109.847h-73.231c-22.287 0-36.616 17.6-36.616 36.616zM684.943 254.787c0-30.098-26.864-61.026-48.821-61.026h-353.951c-21.957 0-24.41 17.966-24.41 36.616v378.361c0 17.441 2.453 36.616 24.41 36.616h73.231v-329.54c0-37.69 16.758-61.026 61.026-61.026h268.514z" />
<glyph unicode="&#xe922;" glyph-name="nav-config" d="M1024 465.387l-0.051 83.815c-0.047 7.034-5.764 12.712-12.8 12.712h-105.643c-62.464 0-77.449 38.87-33.28 82.927 44.186 44.040 74.718 77.297 74.718 77.297 4.749 5.368 4.712 13.445-0.085 18.77 0 0-28.723 30.714-70.827 72.689-42.052 41.941-72.192 71.103-72.192 71.103-5.215 4.899-13.307 5.010-18.654 0.256 0 0-33.655-30.816-77.824-74.856-44.186-44.040-82.261-29.366-82.261 32.932s0.171 104.342 0.171 104.342c0 3.37-1.347 6.6-3.741 8.971s-5.637 3.688-9.008 3.656h-98.748c-59.511 0-104.277-0.051-104.277-0.051-3.354 0-6.569-1.339-8.93-3.719s-3.675-5.606-3.648-8.959v-103.966c0-62.281-35.328-77.211-79.497-33.171-44.186 44.040-75.486 73.747-75.486 73.747-5.261 4.857-13.366 4.879-18.654 0.051 0 0-29.833-28.052-71.919-69.993-42.069-41.976-71.066-72.041-71.066-72.041-4.887-5.226-4.998-13.31-0.256-18.667 0 0 31.027-33.956 75.213-78.030 44.186-44.023 28.774-83.081-33.707-83.081l-33.195-0.205h-73.95c-14.643 0-14.404-10.357-14.404-12.32v-96.953c0-59.346 0.119-102.482 0.119-102.482 0.034-7.030 5.769-12.797 12.8-12.832 0 0 46.626-0.102 109.073-0.102 62.481 0 77.431-37.095 33.28-81.153-44.186-44.057-74.786-74.737-74.786-74.737-4.976-5.048-5.037-13.136-0.137-18.258 0 0 29.013-29.929 71.083-71.905 42.103-41.958 72.294-70.437 72.294-70.437 5.12-4.829 13.414-4.761 18.449 0.171 0 0 30.822 30.202 74.991 74.225 44.203 44.057 79.292 29.161 79.292-33.137s0.222-113.010 0.222-113.010c0.017-7.047 5.803-12.985 12.851-12.985h201.813c7.102 0.12 12.82 5.867 12.902 12.968 0 0 0.41 50.627 0.41 112.942 0 62.281 38.298 77.262 82.466 33.222 25.409-25.382 51.24-50.337 77.483-74.856 5.322-4.79 13.42-4.731 18.671 0.136 0 0 30.43 29.008 72.516 70.983 42.069 41.942 71.253 72.041 71.253 72.041 4.9 5.111 4.832 13.196-0.154 18.224 0 0-30.498 30.117-74.667 74.174-44.169 44.040-29.167 78.252 33.297 78.252h105.609c7.049 0 12.8 6.006 12.8 13.053l0.068 92.585v25.663zM511.027 257.318c-106.257 0-192.375 85.879-192.375 191.825 0 105.963 86.118 191.842 192.375 191.842 106.24 0 192.375-85.879 192.375-191.842 0-105.946-86.135-191.825-192.375-191.825zM510.976 541.66c-51.285 0-92.877-41.464-92.877-92.602 0-51.156 41.591-92.602 92.877-92.602s92.877 41.464 92.877 92.602c0 51.138-41.591 92.602-92.877 92.602v0z" />
<glyph unicode="&#xe923;" glyph-name="nav-beacon" d="M821.931 663.6c-44.767 0-80.861 36.092-80.861 80.801 0 44.765 36.094 80.913 80.861 80.913 44.712 0 80.805-36.148 80.805-80.913 0-44.653-36.094-80.801-80.805-80.801v0zM848.847 318.685l-32.344-32.343-48.461 48.514-48.517-48.514-32.344 32.343 48.517 48.458-48.517 48.514 32.344 32.343 48.517-48.514 48.461 48.514 32.344-32.343-48.517-48.514 48.517-48.458zM637.881 562.487l-449.242-269.43-26.972 40.456 449.242 269.43-40.403 60.657 143.592-26.915-35.814-134.799-40.403 60.601zM121.264 507.314l48.517 48.458-48.517 48.514 32.345 32.399 48.517-48.57 48.461 48.57 32.344-32.399-48.461-48.514 48.461-48.458-32.344-32.343-48.461 48.458-48.517-48.458-32.345 32.343zM336.819 792.97l32.345 32.343 48.517-48.57 48.517 48.57 32.344-32.343-48.517-48.57 48.517-48.514-32.344-32.287-48.517 48.458-48.517-48.458-32.345 32.287 48.517 48.514-48.517 48.57zM916.278 960h-808.501c-59.541 0-107.778-48.234-107.778-107.772v-592.857c0-59.538 48.237-107.772 107.778-107.772h363.792l-175.153-175.143 40.403-40.456 175.209 175.199 175.153-175.199 40.403 40.456-175.153 175.143h363.848c59.541 0 107.722 48.234 107.722 107.772v592.857c0 59.537-48.181 107.772-107.722 107.772v0z" />
<glyph unicode="&#xe924;" glyph-name="nav-platform_shop" horiz-adv-x="1170" d="M495.146 125.030h-48.13v-48.501h48.13v48.501zM485.183 78.691c-10.324 2.214-20.735 4.017-31.208 5.405l1.392 4.468c10.989-1.441 21.464-3.099 31.647-4.973l-1.831-4.9zM460.862 92.744l1.319 4.324c6.813-1.009 13.553-2.090 20.366-3.243l-1.465-4.54c-6.703 1.351-13.446 2.505-20.219 3.459v0zM491.557 96.059c-6.752 1.446-13.368 3.447-19.779 5.981-5.348-2.378-12.454-4.756-21.318-6.99-0.632 1.456-1.392 2.854-2.271 4.18 7.692 1.513 14.065 3.315 19.047 5.333-3 2.012-5.69 4.439-7.985 7.207-2.198-2.090-4.395-3.964-6.813-5.765-1.052 1.078-2.127 2.136-3.223 3.171 5.829 4.086 10.846 9.191 14.798 15.062l4.395-2.018c-0.826-1.191-1.706-2.345-2.637-3.459h23.296v-3.819c-3.534-4.090-7.714-7.594-12.38-10.378 4.615-1.585 10.256-2.739 16.996-3.603-0.853-1.579-1.587-3.217-2.198-4.9h0.073zM805.244 125.39h7.765v-20.827h-7.765v20.827zM668.986 89.141h26.226v-7.639h-26.299v7.639h0.073zM1023.991 313.556c-66.664 0-123.805 39.853-147.101 96.064-24.071-58.158-81.584-96.152-145.416-96.064-63.903-0.135-121.494 37.901-145.562 96.136-24.681-58.382-82.754-96.325-147.027-96.064-65.932 0-122.413 39.853-145.489 96.064-31.211-73.963-114.295-112.649-192.227-89.506v-318.389c0-29.547 33.479-65.797 63.514-65.797h840.921c30.035 0 63.514 36.177 63.514 65.797v318.173c-14.656-4.237-29.851-6.396-45.127-6.414v0zM1066.627 817.516h-966.264l-100.363-258.214c0-77.327 65.199-141.466 145.489-141.466 80.217 0 147.101 62.554 147.101 141.466 0-77.327 65.199-141.466 145.416-141.466 80.29 0 147.174 62.554 147.174 141.466 0-77.327 65.199-141.466 145.416-141.466 38.394-0.346 75.341 14.397 102.642 40.956s42.698 62.739 42.774 100.51c0-77.327 65.199-141.466 147.101-141.466 80.29 0 147.174 62.554 147.174 141.466l-103.659 258.214zM1019.742 819.173l7.839-7.711-7.765 7.711h-0.073zM167.246 861.332h835.866c13.387-0.257 26.304 4.861 35.772 14.175s14.671 22.021 14.409 35.19c0.241 13.145-4.961 25.821-14.411 35.117s-22.335 14.413-35.697 14.177h-835.939c-13.374 0.257-26.279-4.852-35.745-14.15s-14.678-21.986-14.436-35.143c0-27.962 21.757-49.365 50.108-49.365h0.073z" />
<glyph unicode="&#xe925;" glyph-name="nav-article" d="M1022.736 829.728c-7.586 43.581-37.928 54.318-50.571 56.845l-3.793 0.632h-63.845c-14.539-1.895-25.917-14.527-25.917-30.317v-9.474c0-15.159 11.378-27.791 25.917-30.317h48.042c0.632-3.79 0.632-8.842 0-12.632v-740.247c-1.264-21.475-8.85-37.265-21.493-47.371-7.586-6.316-15.803-8.842-18.964-10.106h-57.524v0.632c-22.757 0.632-36.664 9.474-44.881 27.791-6.953 15.79-6.953 33.475-6.953 34.738v768.037c2.529 42.95-8.218 75.793-30.975 97.268-26.55 25.264-59.421 25.264-68.903 24.633h-608.744c-26.55 0-49.939-10.106-66.374-28.422-30.342-33.475-28.446-84.004-27.182-96.005v-764.879c0-6.948-0.632-34.107 12.011-61.898 19.596-42.95 58.788-68.846 111.888-72.635l797.12 0.632c4.425 0.632 26.55 4.421 49.939 21.475 22.125 15.79 48.674 46.739 51.835 102.321v737.089c0.632 5.684 1.264 18.317-0.632 32.212zM327.389 134.957h-147.919c-20.228 0-36.664 16.422-36.664 36.633s16.435 36.633 36.664 36.633h147.919c20.228 0 36.664-16.422 36.664-36.633s-16.435-36.633-36.664-36.633v0zM619.435 336.441h-439.965c-20.228 0-36.664 16.422-36.664 36.633s16.435 36.633 36.664 36.633h439.965c20.228 0 36.664-16.422 36.664-36.633s-16.435-36.633-36.664-36.633zM619.435 537.292h-439.965c-20.228 0-36.664 16.422-36.664 36.633s16.435 36.633 36.664 36.633h439.965c20.228 0 36.664-16.422 36.664-36.633s-16.435-36.633-36.664-36.633zM620.699 742.566h-439.965c-20.228 0-36.664 16.422-36.664 36.633s16.435 36.633 36.664 36.633h439.965c20.228 0 36.664-16.422 36.664-36.633s-16.435-36.633-36.664-36.633z" />
<glyph unicode="&#xe926;" glyph-name="nav-form" horiz-adv-x="768" d="M466.286 192v-256h-411.429c-30.297 0-54.857 25.47-54.857 56.889v910.222c0 31.419 24.56 56.889 54.857 56.889h658.286c30.297 0 54.857-25.47 54.857-56.889v-654.222h-246.857c-30.297 0-54.857-25.47-54.857-56.889v0zM164.571 476.444h219.429c15.148 0 27.429 12.735 27.429 28.444s-12.28 28.444-27.429 28.444h-219.429c-15.148 0-27.429-12.735-27.429-28.444s12.28-28.444 27.429-28.444v0zM164.571 590.222h219.429c15.148 0 27.429 12.735 27.429 28.444s-12.28 28.444-27.429 28.444h-219.429c-15.148 0-27.429-12.735-27.429-28.444s12.28-28.444 27.429-28.444zM548.571 732.444c0 7.544-2.89 14.779-8.034 20.113s-12.12 8.331-19.395 8.331h-356.571c-15.148 0-27.429-12.735-27.429-28.444s12.28-28.444 27.429-28.444h356.571c7.275 0 14.251 2.997 19.395 8.331s8.034 12.569 8.034 20.113v0zM548.571 192h192c15.148 0 27.429-12.735 27.429-28.444l-219.429-227.556c-7.275 0-14.251 2.997-19.395 8.331s-8.034 12.569-8.034 20.113v199.111c0 7.544 2.89 14.779 8.034 20.113s12.12 8.331 19.395 8.331v0z" />
<glyph unicode="&#xe927;" glyph-name="nav-order" horiz-adv-x="843" d="M702.771-64h-562.226c-77.607 0-140.545 59.809-140.545 133.578v623.287c0 73.77 62.938 133.557 140.545 133.557h28.895c-3.218-10.671-5.482-21.722-5.482-33.384 0-67.633 57.701-122.443 128.85-122.443h257.678c71.149 0 128.85 54.81 128.85 122.443 0 11.662-2.264 22.713-5.482 33.384h28.895c77.629 0 140.545-59.788 140.545-133.557v-623.308c0.022-73.748-62.916-133.557-140.523-133.557zM222.547 136.346h281.113c19.418 0 35.131 14.931 35.131 33.384s-15.712 33.384-35.131 33.384h-281.113c-19.418 0-35.131-14.931-35.131-33.384-0.022-18.432 15.712-33.384 35.131-33.384zM620.77 559.308h-398.223c-19.418 0-35.131-14.931-35.131-33.384s15.735-33.384 35.131-33.384h398.223c19.418 0 35.131 14.931 35.131 33.384 0.022 18.432-15.712 33.384-35.131 33.384zM620.77 381.211h-398.223c-19.418 0-35.131-14.952-35.131-33.384s15.735-33.384 35.131-33.384h398.223c19.418 0 35.131 14.952 35.131 33.384s-15.712 33.384-35.131 33.384zM550.508 715.135h-257.7c-45.295 0-81.979 34.881-81.979 77.924 0 43.022 36.706 77.903 81.979 77.903h14.070c10.852 50.782 58.122 89.038 114.78 89.038s103.928-38.234 114.758-89.038h14.070c45.295 0 81.979-34.881 81.979-77.903 0.022-43.043-36.684-77.924-81.957-77.924zM421.658 893.211c-25.876 0-46.848-19.929-46.848-44.519s20.972-44.519 46.848-44.519c25.876 0 46.848 19.929 46.848 44.519s-20.972 44.519-46.848 44.519z" />
<glyph unicode="&#xe928;" glyph-name="nav-service" horiz-adv-x="1170" d="M684.847 606.15c0 0 32.227 170.007 213.509 170.007s217.538-170.007 217.538-170.007c0 0 54.393 5.925 54.393-35.578s-22.153-55.351-22.153-55.351h-503.557c0 0-14.099 5.925-14.099 47.444s24.171 43.488 24.171 43.488l30.2-0.003zM860.087 827.555c0-21.836 18.036-39.541 40.29-39.541s40.29 17.701 40.29 39.541c0 21.836-18.036 39.541-40.29 39.541-22.249 0-40.29-17.701-40.29-39.541zM765.415 475.675h269.909c0 0-42.3-49.422-175.241-86.984 0 0-169.194-245.129-193.363-245.129s-46.327-1.975-98.703 61.283c-52.377 63.258-88.629 104.773-88.629 104.773v-373.618l-479.387 5.925v618.751h94.666l122.866-490.248 130.924 490.248c0 0 112.796 9.882 132.937-11.863s163.152-233.269 163.152-233.269l120.87 160.13zM50.365 786.040c0-96.081 79.358-173.96 177.251-173.96s177.251 77.884 177.251 173.96c0 96.081-79.358 173.96-177.251 173.96-97.898 0-177.251-77.884-177.251-173.96v0z" />
<glyph unicode="&#xe929;" glyph-name="nav-item" horiz-adv-x="896" d="M761.154 719.36h-44.736c-9.941 138.24-129.238 240.64-258.477 240.64s-248.535-102.4-248.535-240.64h-74.561c-24.854 0-44.736-20.48-49.707-46.080l-84.502-680.96c-4.971-30.72 19.883-56.32 49.707-56.32h795.313c29.824 0 54.678 25.6 49.707 56.32l-84.502 686.080c-4.971 25.6-24.854 40.96-49.707 40.96zM448 895.996c103.784 0 181.622-87.271 192-191.996h-384c10.64 109.719 93.565 192.643 192 191.996zM227.556 512c-17.778 0-35.556 12-35.556 32s10.667 32 35.556 32c17.778 0 28.444-12 28.444-32s-10.667-32-28.444-32zM668.444 512c-17.778 0-28.444 10.667-28.444 28.444s10.667 35.556 28.444 35.556c17.778 0 35.556-10.667 35.556-28.444s-17.778-35.556-35.556-35.556z" />
<glyph unicode="&#xe92a;" glyph-name="nav-design" d="M930.328 657.488c-17.128-17.288-29.396-17.288-46.525 0l-170.592 172.145c-17.115 17.304-17.115 29.684 0 46.972l69.796 70.428c17.129 17.289 44.904 17.289 62.033 0l155.066-156.523c17.129-17.274 17.129-45.306 0-62.595l-69.777-70.428zM874.763 601.392l-494.956-499.555c-8.571-8.649-22.445-8.649-31.017 0l-186.099 187.829c-8.557 8.635-8.557 22.666 0 31.304l494.956 499.554c8.572 8.636 22.446 8.636 31.017 0l186.099-187.828c8.557-8.636 8.557-22.668 0-31.304zM246.575 479.193l-69.203 69.138 129.771 131.748-33.651 34.183-130.051-132.047-62.454 62.406 130.113 132.109-33.65 34.183-130.394-132.408-32.887 32.861c-9.445 9.438-14.168 20.828-14.168 34.168 0 13.355 4.723 24.745 14.168 34.183l165.293 165.114c18.891 18.877 49.517 18.877 68.408 0l232.141-231.907-230.833-230.6c-0.98-0.993-1.713-2.094-2.602-3.131zM42.862-35.259l-17.471-6.043-4.52 4.562 5.985 17.635 16.007-16.154zM52.526 56.517l65.259-65.867-68.627-23.738-20.152 20.355 23.519 69.249zM60.444 79.829l71.228 209.837 217.117-219.119-207.904-71.907-80.441 81.189zM777.692 415.545l232.14-231.909c18.891-18.877 18.891-49.457 0-68.336l-165.289-165.142c-9.445-9.437-20.854-14.158-34.212-14.158s-24.766 4.721-34.211 14.158l-36.373 36.271 119.78 121.617-33.667 34.182-120.047-121.899-62.467 62.406 120.138 121.962-33.65 34.183-120.405-122.261-65.702 65.714c1.044 0.896 233.965 233.212 233.965 233.212z" />
<glyph unicode="&#xe92b;" glyph-name="nav-index" horiz-adv-x="1092" d="M1069.78 743.609c14.991-14.044 22.486-30.61 22.486-49.584 0-19.031-7.495-35.196-22.486-48.609l-208.987-196.385c-14.991-14.044-32.401-21.094-52.291-21.094-19.83 0-37.241 7.051-52.232 21.094l-209.046 196.385c-14.224 13.413-21.306 29.578-21.306 48.609 0 18.974 7.082 35.54 21.306 49.584l209.046 196.385c14.991 13.356 32.401 20.005 52.232 20.005 19.889 0 37.3-6.649 52.291-20.005l208.987-196.385zM913.616 331.866c19.476 0 35.943-6.305 49.399-18.974 13.515-12.668 20.244-28.145 20.244-46.431v-265c0-18.286-6.728-33.763-20.244-46.431-13.456-12.725-29.923-19.031-49.399-19.031h-280.931c-19.476 0-36.179 6.305-50.048 19.031-13.81 12.668-20.716 28.145-20.716 46.431v265c0 18.286 6.905 33.763 20.716 46.431 13.869 12.668 30.572 18.974 50.048 18.974h280.931zM350.574 331.866c19.535 0 36.179-6.305 50.048-18.974 13.81-12.668 20.834-28.145 20.834-46.431v-265c0-18.286-7.023-33.763-20.834-46.431-13.869-12.725-30.513-19.031-50.048-19.031h-280.872c-19.476 0-36.002 6.305-49.458 19.031-13.515 12.668-20.244 28.145-20.244 46.431v265c0 18.286 6.728 33.763 20.244 46.431 13.456 12.668 29.982 18.974 49.458 18.974h280.872zM350.574 859.687c19.535 0 36.179-6.305 50.048-18.974 13.81-12.611 20.834-28.145 20.834-46.431v-263.91c0-18.286-7.023-33.935-20.834-47.004-13.869-13.012-30.513-19.547-50.048-19.547h-280.872c-19.476 0-36.002 6.535-49.458 19.547-13.515 13.069-20.244 28.718-20.244 47.004v263.91c0 18.286 6.728 33.82 20.244 46.431 13.456 12.668 29.982 18.974 49.458 18.974h280.872z" />
<glyph unicode="&#xe92c;" glyph-name="password" d="M702.457 957.755c-176.349 0-319.298-142.95-319.298-319.298 0-19.989 1.852-39.529 5.364-58.495l-388.523-388.523v-191.579c0-35.282 28.577-63.86 63.86-63.86h63.86v63.86h127.719v127.719h127.719v127.719h127.719l82.858 82.858c33.942-12.293 70.533-18.998 108.721-18.998 176.349 0 319.298 142.95 319.298 319.298s-142.95 319.298-319.298 319.298zM798.119 638.329c-52.909 0-95.79 42.881-95.79 95.79 0 52.907 42.881 95.79 95.79 95.79 52.907 0 95.79-42.882 95.79-95.79s-42.882-95.79-95.79-95.79v0z" />
<glyph unicode="&#xe92d;" glyph-name="username" horiz-adv-x="896" d="M441.544 957.756c21.106 0 42.031-2.209 62.772-6.628 20.743-4.419 40.212-10.367 58.407-17.846 18.196-7.477 34.39-15.975 48.582-25.493s25.291-19.034 33.298-28.552c18.923-21.753 32.751-45.717 41.484-71.89s14.92-51.156 18.558-74.949c3.64-27.194 5.459-54.726 5.459-82.597 5.096-3.399 9.099-7.818 12.011-13.256 2.908-4.758 5.275-10.877 7.096-18.355s2.004-16.655 0.546-27.532c-1.456-14.277-4.549-25.664-9.28-34.161s-10.007-15.126-15.829-19.884c-6.551-5.438-13.464-9.177-20.743-11.215-3.639-11.557-7.277-22.434-10.918-32.632-3.639-8.837-7.824-17.505-12.555-26.004-4.731-8.498-10.007-15.127-15.829-19.885-13.829-10.196-25.109-18.865-33.844-26.004s-14.556-19.205-17.467-36.199c-2.183-10.196-2.911-20.564-2.183-31.102s3.82-21.075 9.279-31.612 13.829-20.564 25.109-30.083c11.281-9.518 27.111-18.015 47.489-25.493 18.196-6.799 38.029-12.917 59.497-18.355 21.469-5.438 42.394-11.727 62.773-18.866s38.393-15.976 54.040-26.512c15.647-10.537 26.746-24.983 33.298-43.339 3.639-10.876 6.368-24.303 8.188-40.278s2.729-32.122 2.729-48.437-1.274-31.611-3.822-45.887c-2.548-14.276-6.368-25.153-11.464-32.632-3.639-4.758-14.010-9.517-31.114-14.275-17.103-4.758-38.209-9.347-63.318-13.766s-53.13-8.327-84.062-11.723c-30.933-3.396-62.046-6.286-93.34-8.668-31.296-2.382-61.318-4.252-90.066-5.609s-53.677-2.037-74.782-2.039c-21.106-0.002-45.671 0.677-73.691 2.039-28.022 1.363-56.951 3.233-86.79 5.609s-59.498 5.096-88.974 8.158c-29.477 3.062-56.224 6.291-80.241 9.687s-44.397 6.796-61.136 10.198c-16.741 3.403-27.294 6.801-31.66 10.198-7.279 5.439-12.919 22.094-16.921 49.966s-2.365 63.902 4.911 108.090c3.64 25.152 14.375 44.358 32.208 57.613 17.832 13.257 38.573 23.794 62.226 31.612s48.217 14.786 73.691 20.904c25.474 6.119 48.037 14.956 67.687 26.513 15.283 8.837 26.928 17.334 34.935 25.493s13.83 16.317 17.467 24.474c3.637 8.157 5.457 16.655 5.459 25.493s-0.363 18.695-1.092 29.573c-1.456 15.636-7.277 28.042-17.467 37.218-10.188 9.177-21.469 18.524-33.842 28.042-5.823 4.758-10.918 11.386-15.284 19.883-4.366 8.498-8.368 17.165-12.009 26.004-3.639 10.198-7.277 21.074-10.918 32.632-5.094 1.36-10.188 3.738-15.283 7.138-4.368 3.399-9.098 8.157-14.192 14.275s-9.461 14.956-13.101 26.513c-4.366 11.557-6.005 22.094-4.915 31.612 1.091 9.518 3.093 17.675 6.005 24.474 2.912 7.477 7.643 14.615 14.192 21.414-0.728 25.833 0.729 51.665 4.368 77.498 2.912 21.753 8.19 45.207 15.83 70.359s19.103 47.585 34.389 67.301c13.829 19.034 29.294 34.5 46.398 46.397s34.57 21.243 52.402 28.042c17.832 6.798 35.662 11.386 53.494 13.765s35.116 3.57 51.856 3.57h-0.001z" />
<glyph unicode="&#xe92e;" glyph-name="logout" d="M960.512 420.288l-144.768-144.832-48.256 48.256 60.224 60.288h-315.712v64h325.76l-70.272 70.272 48.256 48.256 144.768-144.768-0.704-0.768 0.704-0.704zM704 768c0 35.346-28.654 64-64 64v0h-448c-35.346 0-64-28.654-64-64v0-640c0-35.346 28.654-64 64-64v0h448c35.346 0 64 28.654 64 64v0 64h64v-64c0-70.692-57.308-128-128-128v0h-448c-70.692 0-128 57.308-128 128v0 640c0 70.692 57.308 128 128 128v0h448c70.692 0 128-57.308 128-128v0-128h-64v128z" />
<glyph unicode="&#xe92f;" glyph-name="tms-recharge_record" d="M928.1 857.6h-832.2c-52.7 0-95.9-42.943-95.9-95.55v-628.1c0-52.508 43.1-95.55 95.9-95.55h510.1c-57.7 36.466-100.6 93.956-118.1 161.608h-313.9c-18.5 0-33.7 15.145-33.7 33.577v4.484c0 18.433 15.2 33.577 33.7 33.577h305.4c0.7 51.611 15.9 99.735 41.7 140.486h-0.2c17.3 27.599 39.5 51.81 65.2 71.638h0.8c45.8 34.773 102.9 55.397 164.9 55.397 147.1 0 266.9-116.175 272.2-261.443v484.326c0 52.607-43.1 95.55-95.9 95.55zM378.9 410.039h-64.2v-31.883h-0.4c0.5-2.491 0.8-5.081 0.8-7.672 0-21.82-17.8-39.555-39.7-39.555s-39.7 17.735-39.7 39.555c0 2.69 0.3 5.181 0.8 7.672h-0.7v31.883h-63.7c-17.6 0-31.8 14.148-31.8 31.684s14.2 31.684 31.8 31.684h0.2v0.1h63.5v31.584h-63.7c-17.6 0-31.8 14.148-31.8 31.684s14.2 31.684 31.8 31.684h0.2v0.1h58c0.5 1.993 1.4 3.886 2.7 5.58l-71.3 71.040c-8.8 8.768-6 25.905 6.4 38.26s29.5 15.145 38.3 6.377l69.7-69.446 64.6 68.549c10.1 10.96 30.4 8.27 42.9-4.284 12.4-12.454 18.6-23.813 6.4-37.562l-75.1-76.42c-0.1-0.697 0.1-1.395 0-2.092h64.1v-0.1c17.5-0.1 31.6-14.248 31.6-31.684s-14.1-31.584-31.6-31.684v-0.1h-64.2v-31.584h64.2v-0.1c17.5-0.1 31.6-14.248 31.6-31.684-0.1-17.337-14.2-31.485-31.7-31.584v0zM883.7 657.931c0-18.433-15.2-33.577-33.7-33.577h-322c-18.5 0-33.7 15.145-33.7 33.577v4.484c0 18.432 15.2 33.577 33.7 33.577h322c18.5 0 33.7-15.145 33.7-33.577v-4.484zM751.8 484.168c-119.9 0-217.2-96.845-217.2-216.407 0-119.463 97.2-216.407 217.2-216.407 119.9 0 217.2 96.845 217.2 216.407 0 119.463-97.3 216.407-217.2 216.407v0zM866.7 233.585h-148.6v169.579c0.1 9.266 7.7 16.739 17 16.739s16.9-7.473 17-16.739v-135.703h114.5c9.4 0 17-7.572 17-16.938 0.1-9.366-7.5-16.938-16.9-16.938v0z" />
<glyph unicode="&#xe930;" glyph-name="tms-account_balance" d="M276.928 755.716c0 0 101.708-84.841 234.547-84.841 132.844 0 237.084 84.724 237.084 84.724s113.065 103.24 54.455 146.607c-58.612 43.365-145.764-14.971-145.764-14.971s-66.561 72.765-145.843 72.765c-79.286 0-143.983-72.554-143.983-72.554s-87.003 58.205-145.152 14.838c-58.16-43.368 54.656-146.568 54.656-146.568v0zM997.502 189.038c0 0 38.751 111.548-49.774 293.879-93.089 191.755-219.366 193.703-219.366 193.703s-93.345-59.571-217.458-59.571c-124.124 0-212.285 59.571-212.285 59.571s-127.919 0.958-223.232-195.367c-85.932-176.998-48.597-292.215-48.597-292.215s-198.449-253.038 484.879-253.038c683.324 0 485.832 253.038 485.832 253.038v0zM509.327 42.090c-137.123 0-248.289 110.515-248.289 246.856 0 136.324 111.166 246.851 248.289 246.851 137.121 0 248.285-110.525 248.285-246.851 0-136.341-111.164-246.856-248.285-246.856v0zM351.926 299.501l160.085-160.112 160.085 160.112-160.085 160.108-160.085-160.108z" />
<glyph unicode="&#xe931;" glyph-name="tms-member_info" d="M781.883 401.916c-0.114 30.611-22.166 45.299-66.271 44.178-10.169-1.121-16.911-1.121-20.338 0v-88.356c3.428 0 10.169-0.561 20.338-1.682 45.361-4.485 67.299 10.876 66.271 45.86zM960.014 857.6h-896.029c-35.306 0-63.986-28.705-63.986-64.025v-89.589h1024v89.589c0 35.32-28.679 64.025-63.986 64.025zM0 102.425c0-35.32 28.679-64.025 63.986-64.025h896.029c35.306 0 63.986 28.705 63.986 64.025v550.319h-1024v-550.319zM628.888 498.794h96.778c84.895 1.121 127.4-31.171 127.4-96.766-2.171-61.109-38.391-93.402-108.661-96.766h-49.246v-120.761h-66.271v314.292zM506.63 498.794h67.985v-314.292h-67.985v314.292zM244.974 498.794l81.582-248.137h1.714l81.582 248.025h66.271l-115.746-314.18h-73.127l-115.403 314.292h73.127z" />
<glyph unicode="&#xe932;" glyph-name="tms-consume_record" d="M512.001-64c-282.771 0-512.001 229.238-512.001 512s229.229 512 512.001 512c282.771 0 511.999-229.24 511.999-512s-229.228-512-511.999-512zM716.8 347.042c0 11.944-9.829 21.634-21.941 21.634h-153.602v100.957h153.602c12.114 0 21.941 9.691 21.941 21.634v14.424c0 11.943-9.829 21.634-21.941 21.634h-44.172l61.143 100.886c4.97 8.212-0.071 19.86-11.271 26.015l-20.286 11.155c-11.2 6.17-24.316 4.507-29.287-3.704l-81.428-134.352h-115.115l-81.429 134.352c-4.97 8.212-18.086 9.874-29.284 3.704l-20.286-11.155c-11.201-6.154-16.243-17.803-11.258-26.015l61.142-100.886h-44.185c-12.128 0-21.943-9.69-21.943-21.634v-14.422c0-11.943 9.814-21.634 21.943-21.634h153.601v-100.957h-153.601c-12.128 0-21.943-9.69-21.943-21.634v-14.423c0-11.944 9.814-21.635 21.943-21.635h153.601v-108.166c0-11.944 9.814-21.635 21.943-21.635h14.628c12.115 0 21.941 9.691 21.941 21.635v108.166h153.602c12.114 0 21.941 9.691 21.941 21.635v14.421z" />
<glyph unicode="&#xe933;" glyph-name="tms-personal_info2" d="M208.836 661.227c34.609 0.001 62.667 34.020 62.666 75.986v85.361c0 41.968-28.056 75.986-62.666 75.986s-62.667-34.020-62.665-75.986v-85.361c0-41.968 28.056-75.986 62.665-75.986zM1023.489 742.798c-2.815 69.549-67.99 64.959-67.99 64.959h-37.386v-120.739c0 0-0.851-52.982-52.935-53.090l-9.811-0.018c-16.882 0.031-47.075 0.062-80.649-0.005-7.785 0.009-12.955 0.019-14.436 0.022-53.020 1.696-50.554 51.715-50.554 51.715v122.116h-395.459v-122.116c0 0 2.466-50.019-50.554-51.715-1.48-0.003-6.65-0.012-14.436-0.022-33.575 0.068-63.769 0.036-80.649 0.005-3.267 0.005-6.542 0.011-9.811 0.018-52.084 0.108-52.935 53.090-52.935 53.090v120.739h-37.386c0 0-65.175 4.59-67.99-64.959-0.411-2.818-0.509-4.488-0.509-4.488s0.109-642.732 0.109-671.214c0-69.023 70.866-69.657 70.866-69.657h882.048c0 0 70.866 0.635 70.866 69.657 0 28.481 0.109 671.214 0.109 671.214s-0.098 1.669-0.509 4.488h-0.002zM513.389 138.93c0-52.753-102.322-64.745-198.376-64.745-95.91 0-199.544 11.992-199.544 64.745v14.507c0 38.717 70.724 77.939 131.017 99.455 4.355 1.576 25.169 12.761 13.531 42.895-29.863 30.095-52.427 78.864-52.427 126.86 0 73.516 49.258 112.041 106.858 112.041 57.563 0 107.106-38.525 107.106-112.041 0-47.802-22.691-96.377-52.374-126.547h0.158c-11.391-34.171 6.838-42.282 9.724-43.209 63.25-20.66 134.327-59.566 134.327-99.455v-14.507zM864.789 163.144h-223.73c-26.537 0-48.048 21.23-48.048 47.418s21.512 47.418 48.048 47.418h223.73c26.537 0 48.048-21.23 48.048-47.418s-21.512-47.418-48.048-47.418zM864.789 350.895h-223.73c-26.537 0-48.048 21.231-48.048 47.418 0 26.189 21.512 47.418 48.048 47.418h223.73c26.537 0 48.048-21.231 48.048-47.418 0-26.189-21.512-47.418-48.048-47.418zM815.461 661.227c34.609 0.001 62.665 34.020 62.665 75.986v85.361c0 41.968-30.413 75.986-65.022 75.986s-60.31-34.020-60.309-75.986v-85.361c0-41.968 28.056-75.986 62.666-75.986v0z" />
<glyph unicode="&#xe934;" glyph-name="tms-red_packets" horiz-adv-x="942" d="M810.827 960h-679.543c-107.469 0-131.284-30.56-131.284-146.144v-57.216c71.194-37.6 160.998-85.44 261.181-117.792 27.916 89.216 111.317 153.952 209.859 153.952 98.416 0 181.722-64.576 209.702-153.568 101.066 33.664 189.577 84.224 261.338 124.096v50.56c0.032 115.552-23.815 146.112-131.253 146.112zM471.040 353.952c-116.806 0-212.067 91.008-219.133 205.824-90.719 29.152-176.455 69.792-251.907 105.44v-604.448c0-115.552 23.815-124.768 131.284-124.768h679.511c107.469 0 131.284 9.216 131.284 124.8v610.144c-76.619-37.92-161.282-80.416-251.907-110.56-6.719-115.104-102.107-206.432-219.133-206.432zM526.43 721.056l-44.571-100.64c-3.691-8.48-6.403-14.976-8.138-19.456h-0.789l-53.876 120.128h-65.768l73.686-134.016h-55.864v-38.176h68.134v-32.96h-68.134v-38.176h68.134v-55.36h62.425v55.328h65.958v38.176h-65.958v32.96h65.958v38.176h-54.697l75.862 134.016h-62.362z" />
<glyph unicode="&#xe935;" glyph-name="nav-membercard" horiz-adv-x="1260" d="M0.001 896c0 35.328 28.672 64 62.511 64h1135.284c34.532 0 62.511-28.48 62.511-64v-896c0-35.328-28.672-64-62.511-64h-1135.284c-16.656 0.034-32.613 6.804-44.344 18.814s-18.268 28.27-18.167 45.186v896zM0.001 768v-64h1260.307v64h-1260.307zM280.23 462.336c-4.991 10.313-15.043 17.117-26.336 17.825s-22.093-4.789-28.295-14.401c-6.201-9.612-6.852-21.863-1.705-32.096l126.031-256c5.342-10.826 16.244-17.662 28.168-17.662s22.825 6.836 28.168 17.662l126.031 256c5.147 10.234 4.497 22.485-1.705 32.096s-17.001 15.108-28.295 14.401c-11.293-0.708-21.346-7.512-26.336-17.825l-97.863-198.784-97.863 198.784zM598.647 448v-256c0-17.673 14.106-32 31.508-32s31.508 14.327 31.508 32v256c0 17.673-14.106 32-31.508 32s-31.508-14.327-31.508-32zM850.708 288h94.523c12.981 0.32 29.113 3.392 45.875 12.16 29.806 15.488 48.648 43.968 48.648 83.84s-18.905 68.352-48.648 83.84c-13.945 7.395-29.335 11.549-45.056 12.16h-126.85c-17.401 0-31.508-14.327-31.508-32v-256c0-17.673 14.106-32 31.508-32s31.508 14.327 31.508 32v96zM944.412 352h-93.704v64h94.523c5.98-0.595 11.795-2.332 17.14-5.12 9.578-4.992 14.367-12.16 14.367-26.88s-4.789-21.888-14.367-26.88c-5.59-2.906-11.697-4.647-17.959-5.12z" />
<glyph unicode="&#xe936;" glyph-name="nav-marketing" d="M378.397 58.311h274.929v429.433l-132.835-109.262-142.094 75.544v-395.715zM718.2 538.57v-480.259h274.898v477.257l-117.356 151.033-157.543-148.031zM38.627 58.311h274.898v431.931l-75.205 51.38-199.693-166.137v-317.174zM84.037 495.689l149.508 122.312 285.613-170.028 338.747 311.95c1.222 1.111 2.215 2.39 3.24 3.665l57.061-56.436 91.877 252.847-263.57-83.039 63.082-62.38c-0.824-0.667-1.732-1.166-2.526-1.891l-297.597-274.065-282.744 168.305-190.262-155.64c-15.706-12.833-17.779-35.717-4.628-51.048 13.118-15.331 36.525-17.44 52.199-4.553zM986.937 8.487h-949.873c-20.449 0-37.064-16.218-37.064-36.27 0-19.998 16.615-36.217 37.064-36.217h949.873c20.448 0 37.063 16.219 37.063 36.217 0 20.052-16.615 36.27-37.063 36.27z" />
<glyph unicode="&#xe937;" glyph-name="nav-member" horiz-adv-x="1092" d="M1027.658 230.017c-6.292 24.557-17.25 47.743-32.304 68.354l36.25 59.023-32.084 31.366-62.574-36.701c-20.258 12.21-42.559 20.843-65.883 25.504l-18.039 70.484h-45.319l-18.064-70.484c-23.182-4.763-45.315-13.503-65.368-25.815l-63.089 36.988-32.059-31.366 36.373-59.287c-15.159-20.515-26.211-43.642-32.574-68.163l-64.486-15.743v-44.333l59.878-14.618c4.060-28.588 14.43-55.975 30.392-80.269l-29.608-48.281 32.059-31.39 47.231 27.705c25.123-18.422 54.363-31.797 86.57-37.299l12.745-49.693h45.319l12.77 49.741c31.405 5.648 61.009 18.425 86.423 37.299l47.304-27.753 32.084 31.39-29.878 48.664c15.515 23.782 26.667 50.602 30.687 79.886l59.854 14.618v44.333l-64.609 15.839zM830.377 71.202c-30.097 0.019-58.954 11.708-80.222 32.496s-33.206 48.971-33.186 78.35c-0.027 61.169 50.743 110.782 113.408 110.822 62.655-0.053 113.411-49.662 113.384-110.822 0.027-61.164-50.725-110.78-113.384-110.846v0zM629.296 415.557c-36.495 26.079-78.138 45.578-122.918 58.449 87.967 41.343 149.144 128.359 149.144 230.017 0 141.374-117.379 255.976-262.184 255.976s-262.233-114.602-262.233-255.976c0-101.18 60.711-187.837 148.041-229.419-161.521-46.463-279.145-188.722-279.145-357.156 0 0 201.13-53.329 399.98-53.329 51.349 0 102.379 3.732 149.879 9.235-16.756 37.45-25.409 77.875-25.417 118.741 0.025 89.409 41.103 168.745 104.854 223.462v0z" />
<glyph unicode="&#xe938;" glyph-name="tms-delete" d="M341.333 123.076v396.406c0 19.903-15.282 36.037-34.133 36.037s-34.133-16.134-34.133-36.037v-396.406c0-9.558 3.596-18.724 9.997-25.482s15.083-10.555 24.136-10.555c18.851 0 34.133 16.134 34.133 36.037zM546.133 123.076v396.406c0 19.903-15.282 36.037-34.133 36.037s-34.133-16.134-34.133-36.037v-396.406c0-9.558 3.596-18.724 9.997-25.482s15.083-10.555 24.136-10.555c18.851 0 34.133 16.134 34.133 36.037zM750.933 123.076v396.406c0 19.903-15.282 36.037-34.133 36.037s-34.133-16.134-34.133-36.037v-396.406c0-9.558 3.596-18.724 9.997-25.482s15.083-10.555 24.136-10.555c18.851 0 34.133 16.134 34.133 36.037zM887.467 852h-141.312c-15.523 63.411-69.661 107.787-131.755 108h-204.8c-62.094-0.213-116.231-44.589-131.755-108h-141.312c-75.405 0-136.533-64.471-136.533-144v-36h34.133v-36h68.267v-556c0-79.529 61.128-144 136.533-144h546.133c75.405 0 136.533 64.471 136.533 144v556h68.267v36h34.133v36c0 79.529-61.128 144-136.533 144zM409.6 888h204.8c24.242-0.154 46.588-13.857 58.709-36h-322.219c12.121 22.143 34.467 35.846 58.709 36zM833.338 29.088c-12.802-13.503-30.166-21.088-48.272-21.088h-546.133c-38.682-0.45-70.858 31.266-73.045 72l4.779 556h682.667v-556c0-19.096-7.192-37.409-19.995-50.912zM68.267 708c0 19.096 7.192 37.409 19.995 50.912s30.166 21.088 48.272 21.088h750.933c18.105 0 35.469-7.586 48.272-21.088s19.995-31.816 19.995-50.912h-887.467z" />
<glyph unicode="&#xe939;" glyph-name="tms-setindex" d="M1024 470.382c0-0.414-0.046-0.816-0.064-1.225 0.308-7.251-1.998-14.049-7.137-18.985-3.377-3.243-7.603-5.291-12.238-6.251-3.083-1.058-6.388-1.665-9.85-1.665h-79.187v-478.13c0-15.533-13.113-28.126-29.289-28.126s-29.289 12.592-29.289 28.126v504.173c0 0.352 0.042 0.693 0.055 1.042-0.013 0.349-0.055 0.69-0.055 1.042 0 15.533 13.113 28.126 29.289 28.126h38.794l-412.838 396.473-412.865-396.474h38.436c16.175 0 29.289-12.592 29.289-28.126 0-0.352-0.042-0.693-0.055-1.042 0.013-0.349 0.055-0.69 0.055-1.042v-476.048h165.966v476.049c0 0.352 0.042 0.693 0.055 1.042-0.013 0.349-0.055 0.69-0.055 1.042 0 15.533 13.113 28.126 29.289 28.126h288.543c16.175 0 29.289-12.592 29.289-28.126 0-0.352-0.042-0.693-0.055-1.042 0.013-0.349 0.055-0.69 0.055-1.042v-504.173c0-15.533-13.113-28.126-29.289-28.126h-513.086c-16.175 0-29.289 12.592-29.289 28.126v478.13h-79.187c-5.163 0-10.008 1.293-14.221 3.546-2.64 1.125-5.062 2.679-7.158 4.691-3.038 2.917-5.063 6.494-6.172 10.42-1.104 2.962-1.738 6.14-1.738 9.467 0 7.993 3.489 15.191 9.065 20.312 1.322 1.699 2.776 3.35 4.404 4.914l470.889 452.194c4.746 4.557 10.193 7.855 15.771 9.878 3.2 1.394 6.732 2.122 10.42 2.24 5.318 0.367 10.421-0.506 14.835-2.677 5.224-2.050 10.3-5.231 14.76-9.512l471.097-452.422c2.135-2.051 3.978-4.248 5.587-6.521 4.457-4.936 7.173-11.36 7.173-18.405zM391.593-7.75h229.966v450.006h-229.966v-450.006z" />
<glyph unicode="&#xe93a;" glyph-name="tms-copy" d="M671.356-64h-523.168c-48.107 0-84.188 35.31-84.188 82.391v647.356c0 47.080 36.081 82.391 84.188 82.391h523.168c48.107 0 84.188-35.31 84.188-82.391v-647.356c6.013-11.77 0-35.31-18.040-52.966-12.027-17.655-42.094-29.425-66.148-29.425v0zM148.188 689.287c-12.027 0-24.054-11.77-24.054-23.54v-647.356c0-11.77 12.027-23.54 24.054-23.54h523.168c6.013 0 18.040 5.885 24.054 11.77s0 5.885 0 5.885v653.241c0 11.77-12.027 23.54-24.054 23.54h-523.168zM875.812 147.862h-12.027c-18.040 0-30.067 11.77-30.067 29.425s12.027 29.425 30.067 29.425h12.027c12.027 0 24.054 11.77 24.054 23.54v647.356c0 11.77-12.027 23.54-24.054 23.54h-523.168c-12.027 0-24.054-11.77-24.054-23.54v-23.54c0-17.655-12.027-29.425-30.067-29.425s-30.067 11.77-30.067 29.425v23.54c0 47.080 36.081 82.391 84.188 82.391h523.168c48.107 0 84.188-35.31 84.188-82.391v-647.356c0-47.080-36.081-82.391-84.188-82.391v0zM563.114 436.23h-300.671c-18.040 0-30.067 11.77-30.067 29.425s12.027 29.425 30.067 29.425h300.671c18.040 0 30.067-11.77 30.067-29.425s-12.027-29.425-30.067-29.425zM563.114 318.529h-300.671c-18.040 0-30.067 11.77-30.067 29.425s12.027 29.425 30.067 29.425h300.671c18.040 0 30.067-11.77 30.067-29.425s-12.027-29.425-30.067-29.425zM563.114 200.828h-300.671c-18.040 0-30.067 11.77-30.067 29.425s12.027 29.425 30.067 29.425h300.671c18.040 0 30.067-11.77 30.067-29.425s-12.027-29.425-30.067-29.425z" />
<glyph unicode="&#xe93b;" glyph-name="common-add-article" d="M588.039 257.67v-63.016l110.608 110.64h-62.952c-26.298-0.027-47.611-21.329-47.656-47.62v-0.004zM669.025 722.914h-319.283c-26.296-0.036-47.604-21.344-47.64-47.637v-449.265c0.027-26.297 21.342-47.606 47.638-47.624h204.649v86.144c0 36.275 39.857 76.132 76.132 76.132h86.112v334.595c-0.009 26.299-21.313 47.62-47.605 47.656h-0.003zM523.256 289.998h-149.255v39.793h149.255v-39.793zM523.256 383.83h-149.255v39.793h149.255v-39.793zM644.736 477.646h-270.751v39.809h270.751v-39.809zM644.736 571.478h-270.751v39.809h270.751v-39.809zM509.392 960c-281.32 0-509.35-228.045-509.35-509.35s228.045-509.35 509.35-509.35c281.273 0 509.318 228.045 509.318 509.35s-228.045 509.35-509.318 509.35zM751.619 311.645c0-0.462-0.223-0.875-0.287-1.273s-0.127-0.812-0.255-1.21c-0.399-1.735-1.224-3.238-2.36-4.446l-163.242-163.305c-1.197-1.14-2.703-1.967-4.378-2.344l-0.062-0.012c-0.355-0.129-0.766-0.219-1.193-0.254l-0.017-0.001c-0.366-0.032-0.78-0.223-1.242-0.223h-240.747c-39.029 0.036-70.659 31.661-70.704 70.684v482.756c0.063 39.020 31.683 70.634 70.699 70.688h343.1c39.022-0.045 70.643-31.666 70.688-70.684v-380.377z" />
</font>
</defs>
</svg>
